<svg width="24" height="24" viewBox="0 0 24 24" fill="none" xmlns="http://www.w3.org/2000/svg">
<path d="M12.0065 21C12.7085 20.9937 13.3796 20.7212 13.8745 20.2414L19.612 14.7257C19.8605 14.4848 20 14.159 20 13.8193C20 13.4796 19.8605 13.1538 19.612 12.9129C19.488 12.7923 19.3404 12.6967 19.1778 12.6314C19.0152 12.5662 18.8408 12.5325 18.6646 12.5325C18.4885 12.5325 18.3141 12.5662 18.1515 12.6314C17.9889 12.6967 17.8413 12.7923 17.7173 12.9129L13.3408 17.1429L13.3408 4.28571C13.3408 3.94472 13.2002 3.6177 12.95 3.37658C12.6998 3.13546 12.3604 3 12.0065 3C11.6526 3 11.3133 3.13546 11.063 3.37658C10.8128 3.6177 10.6722 3.94472 10.6722 4.28571L10.6722 17.1429L6.28239 12.9129C6.03291 12.6708 5.69384 12.5341 5.33976 12.5329C4.98569 12.5317 4.64562 12.666 4.39437 12.9064C4.14312 13.1468 4.00126 13.4736 4.00001 13.8147C3.99876 14.1559 4.13821 14.4836 4.3877 14.7257L10.1252 20.2414C10.6233 20.7243 11.2999 20.9971 12.0065 21V21Z" fill="black"/>
</svg>
