<svg width="24" height="24" viewBox="0 0 24 24" fill="none" xmlns="http://www.w3.org/2000/svg">
<path fill-rule="evenodd" clip-rule="evenodd" d="M3.87793 11.707C3.87793 11.1547 4.32564 10.707 4.87793 10.707L18.5365 10.707C19.0888 10.707 19.5365 11.1547 19.5365 11.707C19.5365 12.2593 19.0888 12.707 18.5365 12.707L4.87793 12.707C4.32564 12.707 3.87793 12.2593 3.87793 11.707Z" fill="#282828"/>
<path fill-rule="evenodd" clip-rule="evenodd" d="M11.0002 4.1718C11.3907 3.78128 12.0239 3.78128 12.4144 4.1718L19.2437 11.0011C19.4312 11.1886 19.5365 11.443 19.5365 11.7082C19.5365 11.9734 19.4312 12.2277 19.2437 12.4153L12.4144 19.2446C12.0239 19.6351 11.3907 19.6351 11.0002 19.2446C10.6096 18.854 10.6096 18.2209 11.0002 17.8303L17.1223 11.7082L11.0002 5.58601C10.6096 5.19549 10.6096 4.56232 11.0002 4.1718Z" fill="#282828"/>
</svg>
