<svg width="24" height="24" viewBox="0 0 24 24" fill="none" xmlns="http://www.w3.org/2000/svg">
<path d="M11.9935 3C11.2915 3.00626 10.6204 3.2788 10.1255 3.75857L4.388 9.27429C4.13949 9.51518 4 9.84105 4 10.1807C4 10.5204 4.13949 10.8462 4.388 11.0871C4.51204 11.2077 4.65962 11.3033 4.82221 11.3686C4.98481 11.4338 5.15921 11.4675 5.33535 11.4675C5.5115 11.4675 5.68589 11.4338 5.84849 11.3686C6.01109 11.3033 6.15866 11.2077 6.2827 11.0871L10.6592 6.85714V19.7143C10.6592 20.0553 10.7998 20.3823 11.05 20.6234C11.3002 20.8645 11.6396 21 11.9935 21C12.3474 21 12.6867 20.8645 12.937 20.6234C13.1872 20.3823 13.3278 20.0553 13.3278 19.7143V6.85714L17.7176 11.0871C17.9671 11.3292 18.3062 11.4659 18.6602 11.4671C19.0143 11.4683 19.3544 11.334 19.6056 11.0936C19.8569 10.8532 19.9987 10.5264 20 10.1853C20.0012 9.84408 19.8618 9.51639 19.6123 9.27429L13.8748 3.75857C13.3767 3.27567 12.7001 3.00287 11.9935 3V3Z" fill="black"/>
</svg>
