<svg width="24" height="24" viewBox="0 0 24 24" fill="none" xmlns="http://www.w3.org/2000/svg">
<path d="M3 12.0065C3.00626 12.7085 3.2788 13.3796 3.75857 13.8745L9.27429 19.612C9.51518 19.8605 9.84105 20 10.1807 20C10.5204 20 10.8462 19.8605 11.0871 19.612C11.2077 19.488 11.3033 19.3404 11.3686 19.1778C11.4338 19.0152 11.4675 18.8408 11.4675 18.6646C11.4675 18.4885 11.4338 18.3141 11.3686 18.1515C11.3033 17.9889 11.2077 17.8413 11.0871 17.7173L6.85714 13.3408L19.7143 13.3408C20.0553 13.3408 20.3823 13.2002 20.6234 12.95C20.8645 12.6998 21 12.3604 21 12.0065C21 11.6526 20.8645 11.3133 20.6234 11.063C20.3823 10.8128 20.0553 10.6722 19.7143 10.6722L6.85714 10.6722L11.0871 6.28239C11.3292 6.03291 11.4659 5.69384 11.4671 5.33976C11.4683 4.98569 11.334 4.64562 11.0936 4.39437C10.8532 4.14312 10.5264 4.00126 10.1853 4.00001C9.84408 3.99876 9.51639 4.13821 9.27429 4.3877L3.75857 10.1252C3.27567 10.6233 3.00287 11.2999 3 12.0065V12.0065Z" fill="black"/>
</svg>
