<svg width="24" height="24" viewBox="0 0 24 24" fill="none" xmlns="http://www.w3.org/2000/svg">
<path d="M21 11.9935C20.9937 11.2915 20.7212 10.6204 20.2414 10.1255L14.7257 4.388C14.4848 4.13949 14.159 4 13.8193 4C13.4796 4 13.1538 4.13949 12.9129 4.388C12.7923 4.51204 12.6967 4.65962 12.6314 4.82221C12.5662 4.98481 12.5325 5.15921 12.5325 5.33535C12.5325 5.5115 12.5662 5.68589 12.6314 5.84849C12.6967 6.01109 12.7923 6.15866 12.9129 6.2827L17.1429 10.6592H4.28571C3.94472 10.6592 3.6177 10.7998 3.37658 11.05C3.13546 11.3002 3 11.6396 3 11.9935C3 12.3474 3.13546 12.6867 3.37658 12.937C3.6177 13.1872 3.94472 13.3278 4.28571 13.3278H17.1429L12.9129 17.7176C12.6708 17.9671 12.5341 18.3062 12.5329 18.6602C12.5317 19.0143 12.666 19.3544 12.9064 19.6056C13.1468 19.8569 13.4736 19.9987 13.8147 20C14.1559 20.0012 14.4836 19.8618 14.7257 19.6123L20.2414 13.8748C20.7243 13.3767 20.9971 12.7001 21 11.9935Z" fill="black"/>
</svg>
