<svg width="24" height="24" viewBox="0 0 24 24" fill="none" xmlns="http://www.w3.org/2000/svg">
<path fill-rule="evenodd" clip-rule="evenodd" d="M5.58333 5C5.42862 5 5.28025 5.06146 5.17085 5.17085C5.06146 5.28025 5 5.42862 5 5.58333V17.2322L6.53278 15.6995C6.7672 15.465 7.08515 15.3333 7.41667 15.3333H18.4167C18.5714 15.3333 18.7197 15.2719 18.8291 15.1625C18.9385 15.0531 19 14.9047 19 14.75V5.58333C19 5.42862 18.9385 5.28025 18.8291 5.17085C18.7197 5.06146 18.5714 5 18.4167 5H5.58333ZM3.40309 3.40309C3.98132 2.82485 4.76558 2.5 5.58333 2.5H18.4167C19.2344 2.5 20.0187 2.82485 20.5969 3.40309C21.1751 3.98132 21.5 4.76558 21.5 5.58333V14.75C21.5 15.5678 21.1751 16.352 20.5969 16.9302C20.0187 17.5085 19.2344 17.8333 18.4167 17.8333H7.93443L4.63388 21.1339C4.27639 21.4914 3.73874 21.5983 3.27165 21.4049C2.80455 21.2114 2.5 20.7556 2.5 20.25V5.58333C2.5 4.76558 2.82485 3.98132 3.40309 3.40309Z" fill="#282828"/>
</svg>
