<svg width="19" height="19" viewBox="0 0 19 19" fill="none" xmlns="http://www.w3.org/2000/svg">
<g clip-path="url(#clip0_3401_26290)">
<path fill-rule="evenodd" clip-rule="evenodd" d="M9.49984 2.37435C5.56481 2.37435 2.37484 5.56432 2.37484 9.49935C2.37484 13.4344 5.56481 16.6243 9.49984 16.6243C13.4349 16.6243 16.6248 13.4344 16.6248 9.49935C16.6248 5.56432 13.4349 2.37435 9.49984 2.37435ZM0.791504 9.49935C0.791504 4.68987 4.69036 0.791016 9.49984 0.791016C14.3093 0.791016 18.2082 4.68987 18.2082 9.49935C18.2082 14.3088 14.3093 18.2077 9.49984 18.2077C4.69036 18.2077 0.791504 14.3088 0.791504 9.49935Z" fill="#282828"/>
<path fill-rule="evenodd" clip-rule="evenodd" d="M9.49967 3.95703C9.9369 3.95703 10.2913 4.31147 10.2913 4.7487V9.00942L13.0204 10.3739C13.4115 10.5695 13.57 11.045 13.3744 11.4361C13.1789 11.8271 12.7034 11.9857 12.3123 11.7901L9.14563 10.2068C8.87743 10.0727 8.70801 9.79856 8.70801 9.4987V4.7487C8.70801 4.31147 9.06245 3.95703 9.49967 3.95703Z" fill="#282828"/>
</g>
<defs>
<clipPath id="clip0_3401_26290">
<rect width="19" height="19" fill="white"/>
</clipPath>
</defs>
</svg>
