<svg width="18" height="18" viewBox="0 0 18 18" fill="none" xmlns="http://www.w3.org/2000/svg">
<path d="M16.2014 1.79891L16.2014 1.79886C16.042 1.63951 15.8258 1.54999 15.6004 1.54999C15.375 1.54999 15.1589 1.63951 14.9995 1.79886L14.9994 1.79889L9.00029 7.79802L3.00116 1.79889L3.00113 1.79886C2.84173 1.63951 2.62557 1.54999 2.40018 1.54999C2.17478 1.54999 1.95862 1.63951 1.79922 1.79886L1.79916 1.79891C1.63981 1.95831 1.55029 2.17448 1.55029 2.39987C1.55029 2.62526 1.63981 2.84143 1.79916 3.00083L1.79919 3.00085L7.79833 8.99999L1.79919 14.9991L1.79916 14.9991C1.63981 15.1586 1.55029 15.3747 1.55029 15.6001C1.55029 15.8255 1.63981 16.0417 1.79916 16.2011L1.79922 16.2011C1.95862 16.3605 2.17478 16.45 2.40018 16.45C2.62557 16.45 2.84173 16.3605 3.00113 16.2011L3.00116 16.2011L9.00029 10.202L14.9994 16.2011L14.9995 16.2011C15.1589 16.3605 15.375 16.45 15.6004 16.45C15.8258 16.45 16.042 16.3605 16.2014 16.2011L16.2014 16.2011C16.3608 16.0417 16.4503 15.8255 16.4503 15.6001C16.4503 15.3747 16.3608 15.1586 16.2014 14.9991L16.2014 14.9991L10.2023 8.99999L16.2014 3.00085L16.2014 3.00083C16.3608 2.84143 16.4503 2.62526 16.4503 2.39987C16.4503 2.17448 16.3608 1.95831 16.2014 1.79891Z" fill="#565656" stroke="#565656" stroke-width="0.5"/>
</svg>
