<svg width="40" height="40" viewBox="0 0 40 40" fill="none" xmlns="http://www.w3.org/2000/svg">
<path d="M20.0678 24.5191C19.9745 24.4989 19.8787 24.4953 19.7842 24.5094C18.8366 24.3991 18.1219 23.5974 18.1202 22.6438C18.1202 22.1868 17.7497 21.8163 17.2927 21.8163C16.8357 21.8163 16.4652 22.1868 16.4652 22.6438C16.4676 24.2363 17.5327 25.6311 19.0682 26.0525V26.8801C19.0682 27.3371 19.4387 27.7076 19.8957 27.7076C20.3527 27.7076 20.7232 27.3371 20.7232 26.8801V26.1026C22.4955 25.7317 23.7 24.0811 23.5137 22.2802C23.327 20.4792 21.8098 19.1107 19.9991 19.1103C18.9615 19.1103 18.1202 18.269 18.1202 17.2313C18.1202 16.1937 18.9615 15.3524 19.9991 15.3524C21.0368 15.3524 21.8781 16.1937 21.8781 17.2313C21.8781 17.6883 22.2486 18.0589 22.7056 18.0589C23.1626 18.0589 23.5331 17.6883 23.5331 17.2313C23.5307 15.5593 22.3593 14.1172 20.7232 13.7721V13.0189C20.7232 12.5619 20.3527 12.1914 19.8957 12.1914C19.4387 12.1914 19.0682 12.5619 19.0682 13.0189V13.8226C17.3606 14.2889 16.2615 15.9468 16.4967 17.7013C16.7319 19.4557 18.2289 20.7653 19.9991 20.7649C21.0231 20.7649 21.8583 21.5848 21.8769 22.6083C21.8958 23.6318 21.0909 24.4819 20.0678 24.5191V24.5191Z" fill="#282828"/>
<path d="M8 20C8 26.6275 13.3725 32 20 32C26.6275 32 32 26.6275 32 20C32 13.3725 26.6275 8 20 8C13.3757 8.00727 8.00768 13.3757 8 20ZM20 9.65506C25.7135 9.65506 30.3449 14.2865 30.3449 20C30.3449 25.7135 25.7135 30.3449 20 30.3449C14.2865 30.3449 9.65506 25.7135 9.65506 20C9.66153 14.2893 14.2893 9.66153 20 9.65506Z" fill="#282828"/>
</svg>
