<svg width="24" height="24" viewBox="0 0 24 24" fill="none" xmlns="http://www.w3.org/2000/svg">
<path fill-rule="evenodd" clip-rule="evenodd" d="M5.25 6C4.44566 6 4 6.55519 4 7V19C4 19.4448 4.44566 20 5.25 20H18.75C19.5543 20 20 19.4448 20 19V7C20 6.55519 19.5543 6 18.75 6H5.25ZM2 7C2 5.23567 3.56906 4 5.25 4H18.75C20.4309 4 22 5.23567 22 7V19C22 20.7643 20.4309 22 18.75 22H5.25C3.56906 22 2 20.7643 2 19V7Z" fill="#282828"/>
<path fill-rule="evenodd" clip-rule="evenodd" d="M8 2C8.55228 2 9 2.44772 9 3V7C9 7.55228 8.55228 8 8 8C7.44772 8 7 7.55228 7 7V3C7 2.44772 7.44772 2 8 2ZM16 2C16.5523 2 17 2.44772 17 3V7C17 7.55228 16.5523 8 16 8C15.4477 8 15 7.55228 15 7V3C15 2.44772 15.4477 2 16 2ZM3 11C3 10.4477 3.44772 10 4 10H20C20.5523 10 21 10.4477 21 11C21 11.5523 20.5523 12 20 12H4C3.44772 12 3 11.5523 3 11Z" fill="#282828"/>
</svg>
