<svg width="40" height="40" viewBox="0 0 40 40" fill="none" xmlns="http://www.w3.org/2000/svg">
<path fill-rule="evenodd" clip-rule="evenodd" d="M18.5811 21.908C18.7125 21.9685 18.8554 21.9999 19.0001 22C19.1447 21.9999 19.2877 21.9685 19.4191 21.908L26.5 18.6399V25C26.5 25.5805 23.8715 27 19 27C14.1285 27 11.5 25.5805 11.5 25V18.6398L18.5811 21.908ZM30.9998 16.5631L28.5 17.7168V25C28.5 27.7501 23.5755 29.0001 19 29.0001C14.4245 29.0001 9.49997 27.7501 9.49997 25V17.7168L5.58103 15.908C5.40757 15.828 5.26066 15.6999 5.15769 15.539C5.05472 15.3781 5 15.1911 5 15C5 14.809 5.05472 14.6219 5.15769 14.461C5.26066 14.3001 5.40757 14.1721 5.58103 14.092L18.5811 8.09201C18.7125 8.03139 18.8554 8 19.0001 8C19.1448 8 19.2877 8.03139 19.4191 8.09201L32.4191 14.092C32.5926 14.1721 32.7395 14.3001 32.8425 14.461C32.9455 14.6219 33.0002 14.809 33.0002 15C33.0002 15.0097 33 15.0194 32.9998 15.0291V26.1715C33.0496 26.1891 33.0991 26.2081 33.1482 26.2284C33.6963 26.4555 34.1649 26.84 34.4945 27.3333C34.8242 27.8267 35.0001 28.4067 35.0001 29.0001C34.9993 29.7955 34.683 30.5581 34.1206 31.1205C33.5581 31.6829 32.7955 31.9993 32.0001 32.0001C31.4068 32.0001 30.8267 31.8241 30.3334 31.4945C29.84 31.1648 29.4555 30.6963 29.2285 30.1481C29.0014 29.5999 28.942 28.9967 29.0577 28.4148C29.1735 27.8328 29.4592 27.2983 29.8788 26.8787C30.1963 26.5612 30.5798 26.3203 30.9998 26.1717V16.5631ZM31.998 28.0001C31.8009 28.0005 31.6084 28.0591 31.4445 28.1686C31.2801 28.2785 31.1519 28.4346 31.0762 28.6174C31.0005 28.8001 30.9807 29.0012 31.0193 29.1951C31.0579 29.3891 31.1531 29.5673 31.293 29.7072C31.4329 29.847 31.611 29.9423 31.805 29.9808C31.999 30.0194 32.2001 29.9996 32.3828 29.9239C32.5655 29.8482 32.7217 29.7201 32.8316 29.5556C32.9415 29.3912 33.0001 29.1978 33.0001 29.0001C33.0001 28.7348 32.8948 28.4805 32.7072 28.2929C32.5201 28.1058 32.2665 28.0005 32.0019 28.0001C32.0012 28.0001 32.0005 28.0001 31.9998 28.0001C31.9992 28.0001 31.9986 28.0001 31.998 28.0001ZM19.0001 19.9L8.38604 15L19.0001 10.1L29.6141 15L19.0001 19.9Z" fill="#282828"/>
</svg>
