<svg width="24" height="24" viewBox="0 0 24 24" fill="none" xmlns="http://www.w3.org/2000/svg">
<path d="M19.2 19.2015V13.9275C19.2 11.3355 18.642 9.35547 15.618 9.35547C14.16 9.35547 13.188 10.1475 12.792 10.9035H12.756V9.58947H9.89404V19.2015H12.882V14.4315C12.882 13.1715 13.116 11.9655 14.664 11.9655C16.194 11.9655 16.212 13.3875 16.212 14.5035V19.1835H19.2V19.2015Z" fill="#282828"/>
<path d="M5.03394 9.58984H8.02193V19.2018H5.03394V9.58984Z" fill="#282828"/>
<path d="M6.52805 4.80078C5.57405 4.80078 4.80005 5.57478 4.80005 6.52878C4.80005 7.48278 5.57405 8.27478 6.52805 8.27478C7.48205 8.27478 8.25605 7.48278 8.25605 6.52878C8.25605 5.57478 7.48205 4.80078 6.52805 4.80078V4.80078Z" fill="#282828"/>
</svg>
