<svg width="24" height="24" viewBox="0 0 24 24" fill="none" xmlns="http://www.w3.org/2000/svg">
<path fill-rule="evenodd" clip-rule="evenodd" d="M13.2929 4.29327C14.1435 3.44269 15.2971 2.96484 16.5 2.96484C17.7029 2.96484 18.8565 3.44269 19.7071 4.29327C20.5577 5.14385 21.0355 6.29748 21.0355 7.50038C21.0355 8.70328 20.5577 9.85691 19.7071 10.7075L15.7105 14.7041C15.2923 15.1299 14.7935 15.4683 14.2433 15.6995C13.6913 15.9314 13.0987 16.0509 12.5 16.0509C11.9013 16.0509 11.3087 15.9314 10.7567 15.6995C10.2048 15.4676 9.7047 15.1279 9.28571 14.7002C8.8992 14.3057 8.90566 13.6726 9.30015 13.2861C9.69464 12.8996 10.3278 12.906 10.7143 13.3005C10.9471 13.5381 11.2249 13.7268 11.5315 13.8557C11.8381 13.9845 12.1674 14.0509 12.5 14.0509C12.8326 14.0509 13.1619 13.9845 13.4685 13.8557C13.7751 13.7268 14.0529 13.5381 14.2857 13.3005L14.2929 13.2932L14.2929 13.2933L18.2929 9.29327C18.7684 8.81777 19.0355 8.17284 19.0355 7.50038C19.0355 6.82791 18.7684 6.18299 18.2929 5.70748C17.8174 5.23198 17.1725 4.96484 16.5 4.96484C15.8275 4.96484 15.1826 5.23198 14.7071 5.70748L14.2071 6.20748C13.8166 6.59801 13.1834 6.59801 12.7929 6.20748C12.4024 5.81696 12.4024 5.1838 12.7929 4.79327L13.2929 4.29327Z" fill="#282828"/>
<path fill-rule="evenodd" clip-rule="evenodd" d="M9.75675 8.3006C10.3087 8.06868 10.9013 7.94922 11.5 7.94922C12.0987 7.94922 12.6913 8.06868 13.2433 8.3006C13.7952 8.53252 14.2953 8.87225 14.7143 9.29987C15.1008 9.69436 15.0944 10.3275 14.6999 10.714C14.3054 11.1005 13.6722 11.0941 13.2857 10.6996C13.053 10.462 12.7751 10.2733 12.4685 10.1444C12.1619 10.0156 11.8326 9.94922 11.5 9.94922C11.1674 9.94922 10.8382 10.0156 10.5315 10.1444C10.2249 10.2733 9.94707 10.462 9.7143 10.6996L9.70716 10.7069L9.70712 10.7068L5.70712 14.7068C5.23161 15.1823 4.96448 15.8273 4.96448 16.4997C4.96448 17.1722 5.23161 17.8171 5.70712 18.2926C6.18262 18.7681 6.82755 19.0353 7.50001 19.0353C8.17248 19.0353 8.8174 18.7681 9.2929 18.2926L9.7929 17.7926C10.1834 17.4021 10.8166 17.4021 11.2071 17.7926C11.5976 18.1831 11.5976 18.8163 11.2071 19.2068L10.7071 19.7068C9.85654 20.5574 8.70291 21.0353 7.50001 21.0353C6.29711 21.0353 5.14348 20.5574 4.2929 19.7068C3.44233 18.8563 2.96448 17.7026 2.96448 16.4997C2.96448 15.2968 3.44233 14.1432 4.2929 13.2926L8.2895 9.29603C8.70772 8.87021 9.20647 8.53183 9.75675 8.3006Z" fill="#282828"/>
</svg>
