<svg width="40" height="40" viewBox="0 0 40 40" fill="none" xmlns="http://www.w3.org/2000/svg">
<path d="M30 15.2675C30 13.7347 29.2352 12.5729 28.3833 11.4202L24.8889 7L21.4096 11.4003L21.3945 11.4201C21.1647 11.731 20.9415 12.0426 20.7377 12.3618L18.8303 9.94927L12.8891 17.4632L12.874 17.483C11.3595 19.5323 10 21.5911 10 24.2394C10 29.0584 13.9423 32.9811 18.7954 32.9998L18.8314 33C23.6999 33 27.6606 29.0701 27.6606 24.2395C27.6606 22.6893 27.1943 21.3412 26.5042 20.0787C28.5333 19.4065 30 17.5039 30 15.2675V15.2675ZM18.8646 31.4744L18.8303 31.4744C14.8091 31.4744 11.5377 28.2288 11.5377 24.2394C11.5377 22.0532 12.7005 20.2984 14.1067 18.395L18.8303 12.4211L19.9929 13.8915C19.8572 14.3198 19.7778 14.7744 19.7778 15.2675C19.7778 18.0524 22.0527 20.3202 24.8556 20.3382L24.8856 20.3383C25.6243 21.5623 26.123 22.8086 26.123 24.2396C26.123 28.2179 22.87 31.4567 18.8646 31.4744V31.4744ZM24.9087 18.8127H24.8888C22.9184 18.8127 21.3154 17.2223 21.3154 15.2674C21.3154 14.196 21.8834 13.3391 22.6272 12.3321L24.8889 9.47168L27.1506 12.3321C27.8944 13.3391 28.4624 14.1961 28.4624 15.2675C28.4623 17.2161 26.87 18.8025 24.9087 18.8127V18.8127Z" fill="#282828"/>
</svg>
