<svg width="24" height="24" viewBox="0 0 24 24" fill="none" xmlns="http://www.w3.org/2000/svg">
<path fill-rule="evenodd" clip-rule="evenodd" d="M7.58579 3.58579C7.96086 3.21071 8.46957 3 9 3H15C15.5304 3 16.0391 3.21071 16.4142 3.58579C16.7893 3.96086 17 4.46957 17 5C17 5.26522 17.1054 5.51957 17.2929 5.70711C17.4804 5.89464 17.7348 6 18 6H19C19.7957 6 20.5587 6.31607 21.1213 6.87868C21.6839 7.44129 22 8.20435 22 9V18C22 18.7957 21.6839 19.5587 21.1213 20.1213C20.5587 20.6839 19.7957 21 19 21H5C4.20435 21 3.44129 20.6839 2.87868 20.1213C2.31607 19.5587 2 18.7956 2 18V9C2 8.20435 2.31607 7.44129 2.87868 6.87868C3.44129 6.31607 4.20435 6 5 6H6C6.26522 6 6.51957 5.89464 6.70711 5.70711C6.89464 5.51957 7 5.26522 7 5C7 4.46957 7.21071 3.96086 7.58579 3.58579ZM5 8C4.73478 8 4.48043 8.10536 4.29289 8.29289C4.10536 8.48043 4 8.73478 4 9V18C4 18.2652 4.10536 18.5196 4.29289 18.7071C4.48043 18.8946 4.73478 19 5 19H19C19.2652 19 19.5196 18.8946 19.7071 18.7071C19.8946 18.5196 20 18.2652 20 18V9C20 8.73478 19.8946 8.48043 19.7071 8.29289C19.5196 8.10536 19.2652 8 19 8H18C17.2044 8 16.4413 7.68393 15.8787 7.12132C15.3161 6.55871 15 5.79565 15 5L9 5C9 5.79565 8.68393 6.55871 8.12132 7.12132C7.55871 7.68393 6.79565 8 6 8H5Z" fill="#282828"/>
<path fill-rule="evenodd" clip-rule="evenodd" d="M12 11C10.8954 11 10 11.8954 10 13C10 14.1046 10.8954 15 12 15C13.1046 15 14 14.1046 14 13C14 11.8954 13.1046 11 12 11ZM8 13C8 10.7909 9.79086 9 12 9C14.2091 9 16 10.7909 16 13C16 15.2091 14.2091 17 12 17C9.79086 17 8 15.2091 8 13Z" fill="#282828"/>
</svg>
