<svg width="16" height="16" viewBox="0 0 16 16" fill="none" xmlns="http://www.w3.org/2000/svg">
<g clip-path="url(#clip0_3203_16750)">
<path fill-rule="evenodd" clip-rule="evenodd" d="M7.99996 1.3737C6.59652 1.3737 5.25057 1.93121 4.25819 2.92359C3.26581 3.91597 2.70829 5.26193 2.70829 6.66536C2.70829 8.71399 4.04236 10.708 5.51418 12.2615C6.2356 13.023 6.95943 13.6466 7.5037 14.08C7.69459 14.232 7.86269 14.3601 7.99996 14.4619C8.13723 14.3601 8.30532 14.232 8.49622 14.08C9.04049 13.6466 9.76432 13.023 10.4857 12.2615C11.9576 10.708 13.2916 8.71399 13.2916 6.66536C13.2916 5.26193 12.7341 3.91597 11.7417 2.92359C10.7494 1.93121 9.4034 1.3737 7.99996 1.3737ZM7.99996 15.332C7.60705 15.9214 7.60687 15.9213 7.60667 15.9211L7.60471 15.9198L7.60019 15.9168L7.58476 15.9064C7.57168 15.8975 7.55306 15.8848 7.52927 15.8683C7.48171 15.8353 7.41344 15.7874 7.32742 15.7253C7.15546 15.6011 6.91215 15.4199 6.62122 15.1882C6.04049 14.7258 5.26432 14.0577 4.48574 13.2358C2.95756 11.6228 1.29163 9.28341 1.29163 6.66536C1.29163 4.8862 1.99839 3.17991 3.25645 1.92186C4.51451 0.6638 6.2208 -0.0429688 7.99996 -0.0429688C9.77912 -0.0429688 11.4854 0.6638 12.7435 1.92186C14.0015 3.17991 14.7083 4.8862 14.7083 6.66536C14.7083 9.28341 13.0424 11.6228 11.5142 13.2358C10.7356 14.0577 9.95943 14.7258 9.3787 15.1882C9.08777 15.4199 8.84446 15.6011 8.67249 15.7253C8.58648 15.7874 8.51821 15.8353 8.47064 15.8683C8.44686 15.8848 8.42824 15.8975 8.41516 15.9064L8.39973 15.9168L8.39521 15.9198L8.39377 15.9208C8.39357 15.9209 8.39287 15.9214 7.99996 15.332ZM7.99996 15.332L8.39287 15.9214C8.15494 16.08 7.8446 16.0798 7.60667 15.9211L7.99996 15.332Z" fill="#282828"/>
<path fill-rule="evenodd" clip-rule="evenodd" d="M7.99996 5.3737C7.28659 5.3737 6.70829 5.952 6.70829 6.66536C6.70829 7.37873 7.28659 7.95703 7.99996 7.95703C8.71333 7.95703 9.29163 7.37873 9.29163 6.66536C9.29163 5.952 8.71333 5.3737 7.99996 5.3737ZM5.29163 6.66536C5.29163 5.16959 6.50419 3.95703 7.99996 3.95703C9.49573 3.95703 10.7083 5.16959 10.7083 6.66536C10.7083 8.16114 9.49573 9.3737 7.99996 9.3737C6.50419 9.3737 5.29163 8.16114 5.29163 6.66536Z" fill="#282828"/>
</g>
<defs>
<clipPath id="clip0_3203_16750">
<rect width="16" height="16" fill="white"/>
</clipPath>
</defs>
</svg>
