<svg width="22" height="22" viewBox="0 0 22 22" fill="none" xmlns="http://www.w3.org/2000/svg">
<g clip-path="url(#clip0_3401_26276)">
<path fill-rule="evenodd" clip-rule="evenodd" d="M20.8217 1.12492C21.2122 1.51545 21.2122 2.14861 20.8217 2.53914L10.7384 12.6225C10.3478 13.013 9.71467 13.013 9.32414 12.6225C8.93362 12.2319 8.93362 11.5988 9.32414 11.2083L19.4075 1.12492C19.798 0.7344 20.4312 0.7344 20.8217 1.12492Z" fill="#282828"/>
<path fill-rule="evenodd" clip-rule="evenodd" d="M20.8217 1.12495C21.0933 1.39659 21.1854 1.79982 21.0584 2.16241L14.6418 20.4957C14.5063 20.8827 14.1484 21.1478 13.7387 21.1646C13.329 21.1813 12.9506 20.9462 12.7841 20.5715L9.27365 12.673L1.37512 9.16254C1.00044 8.99601 0.765372 8.61764 0.782086 8.20796C0.7988 7.79828 1.0639 7.44032 1.4509 7.30487L19.7842 0.888201C20.1468 0.761295 20.5501 0.853314 20.8217 1.12495ZM4.49233 8.35933L10.4374 11.0016C10.6636 11.1021 10.8445 11.283 10.9451 11.5093L13.5873 17.4543L18.4846 3.46203L4.49233 8.35933Z" fill="#282828"/>
</g>
<defs>
<clipPath id="clip0_3401_26276">
<rect width="22" height="22" fill="white"/>
</clipPath>
</defs>
</svg>
