<svg width="40" height="40" viewBox="0 0 40 40" fill="none" xmlns="http://www.w3.org/2000/svg">
<path fill-rule="evenodd" clip-rule="evenodd" d="M20.0001 8.25C20.2892 8.25 20.5525 8.41612 20.677 8.67701L23.9579 15.5526L31.5108 16.5482C31.7974 16.586 32.0367 16.7851 32.1261 17.06C32.2154 17.3349 32.1388 17.6367 31.9291 17.8357L26.4039 23.0807L27.791 30.5716C27.8436 30.8559 27.7282 31.1451 27.4944 31.315C27.2605 31.4849 26.9498 31.5053 26.6958 31.3674L20.0001 27.7333L13.3044 31.3674C13.0504 31.5053 12.7397 31.4849 12.5058 31.315C12.272 31.1451 12.1566 30.8559 12.2092 30.5716L13.5963 23.0807L8.07107 17.8357C7.86142 17.6367 7.78481 17.3349 7.87413 17.06C7.96346 16.7851 8.20283 16.586 8.48941 16.5482L16.0423 15.5526L19.3232 8.67701C19.4477 8.41612 19.711 8.25 20.0001 8.25ZM20.0001 10.7415L17.2208 16.566C17.1115 16.7951 16.8936 16.9534 16.6419 16.9865L10.2437 17.83L14.9242 22.2731C15.1084 22.4479 15.1916 22.7039 15.1454 22.9536L13.9703 29.2993L19.6423 26.2208C19.8655 26.0997 20.1347 26.0997 20.3579 26.2208L26.0299 29.2993L24.8549 22.9536C24.8086 22.7039 24.8918 22.4479 25.076 22.2731L29.7565 17.83L23.3583 16.9865C23.1066 16.9534 22.8887 16.7951 22.7794 16.566L20.0001 10.7415Z" fill="#282828"/>
</svg>
