<svg width="40" height="40" viewBox="0 0 40 40" fill="none" xmlns="http://www.w3.org/2000/svg">
<path d="M20 8C13.3832 8 8 13.3971 8 20.0311C8.65916 35.992 31.3433 35.9873 32 20.031C32 13.3971 26.6168 8 20 8V8ZM20 17.0609C19.5572 17.0609 19.1968 16.6997 19.1968 16.2557C19.241 15.1875 20.7591 15.1878 20.8032 16.2557C20.8032 16.6997 20.4428 17.0609 20 17.0609ZM23.7156 29.9774V24.0984L25.7944 22.0137C27.232 22.7527 29.0032 21.6581 28.9875 20.031C28.9875 18.8097 27.9964 17.816 26.7782 17.816C25.1559 17.8004 24.064 19.5751 24.8003 21.0165L22.5153 23.308C22.3835 23.4402 22.3094 23.6195 22.3094 23.8064V30.3973C21.7873 30.5142 21.2509 30.5921 20.7032 30.6283V18.3551C23.0415 17.5278 22.5099 14.09 20 14.0406C17.4898 14.0902 16.9589 17.5282 19.2969 18.3551V30.6283C18.7491 30.5921 18.2127 30.5142 17.6906 30.3974V23.8065C17.6906 23.6195 17.6165 23.4403 17.4847 23.3081L15.1998 21.0165C15.9359 19.5752 14.8442 17.8003 13.2218 17.816C12.0036 17.816 11.0125 18.8097 11.0125 20.0311C10.9969 21.658 12.7679 22.7528 14.2056 22.0137L16.2844 24.0984V29.9774C5.40355 25.7202 8.16875 9.62363 20.0001 9.40989C31.8331 9.62457 34.595 25.7224 23.7156 29.9774V29.9774ZM25.975 20.0311C25.975 19.5871 26.3353 19.2259 26.7781 19.2259C27.8436 19.2701 27.8433 20.7922 26.7781 20.8363C26.3353 20.8363 25.975 20.4751 25.975 20.0311ZM14.025 20.0311C14.025 20.4751 13.6647 20.8363 13.2219 20.8363C12.1564 20.7921 12.1567 19.27 13.2219 19.2259C13.6648 19.2259 14.025 19.5871 14.025 20.0311Z" fill="#282828"/>
</svg>
