<svg width="40" height="40" viewBox="0 0 40 40" fill="none" xmlns="http://www.w3.org/2000/svg">
<path d="M10.6598 20.2586C8.71697 18.2664 7.64697 15.6181 7.64697 12.801C7.64697 9.98367 8.71697 7.33528 10.6598 5.34332C11.1063 4.88556 11.8298 4.88556 12.2763 5.34332C12.7228 5.80086 12.7228 6.54289 12.2763 7.00065C10.7652 8.54996 9.93296 10.6099 9.93296 12.801C9.93296 14.9921 10.7652 17.052 12.2763 18.6013C12.7228 19.0591 12.7228 19.8011 12.2763 20.2586C11.8301 20.7162 11.1063 20.7162 10.6598 20.2586ZM30.0669 12.801C30.0669 14.9921 29.2346 17.052 27.7235 18.6013C27.277 19.0591 27.277 19.8011 27.7235 20.2586C28.1698 20.7162 28.8935 20.7162 29.3398 20.2586C31.2829 18.2664 32.3529 15.6181 32.3529 12.801C32.3529 9.98367 31.2829 7.33528 29.34 5.34332C28.8935 4.88556 28.1698 4.88556 27.7235 5.34332C27.277 5.80086 27.277 6.54289 27.7235 7.00065C29.2346 8.54996 30.0669 10.6099 30.0669 12.801V12.801ZM14.0482 17.7727C14.4947 18.2305 15.2182 18.2305 15.6647 17.7727C16.1109 17.3152 16.1109 16.5732 15.6647 16.1156C14.8012 15.2301 14.3257 14.053 14.3257 12.801C14.3257 11.549 14.8012 10.3719 15.6647 9.48654C16.1109 9.02878 16.1109 8.28697 15.6647 7.82921C15.2182 7.37167 14.4947 7.37167 14.0482 7.82921C12.7529 9.15718 12.0397 10.923 12.0397 12.801C12.0397 14.6792 12.7529 16.4448 14.0482 17.7727ZM24.3351 17.7727C24.7814 18.2305 25.5052 18.2305 25.9514 17.7727C27.2469 16.4448 27.9601 14.6789 27.9601 12.801C27.9601 10.9228 27.2469 9.15718 25.9516 7.82921C25.5052 7.37144 24.7814 7.37167 24.3351 7.82921C23.8889 8.28697 23.8887 9.02878 24.3351 9.48654C25.1986 10.3719 25.6741 11.549 25.6741 12.801C25.6741 14.053 25.1986 15.2301 24.3351 16.1154C23.8887 16.5732 23.8887 17.3152 24.3351 17.7727ZM30.1655 33.3026C30.4484 33.881 30.2205 34.5852 29.6561 34.8755C29.0944 35.1643 28.4064 34.9345 28.122 34.3534L26.2599 30.5466H13.7399L11.8776 34.3532C11.5948 34.9318 10.9079 35.1655 10.3435 34.8752C9.77937 34.5852 9.55144 33.881 9.83429 33.3024L18.3552 15.8847C17.2928 15.2866 16.571 14.1287 16.571 12.801C16.571 10.8623 18.1092 9.28535 20 9.28535C21.8907 9.28535 23.4288 10.8623 23.4288 12.801C23.4288 14.1287 22.707 15.2866 21.6446 15.8847L30.1655 33.3026ZM18.8568 12.801C18.8568 13.4174 19.3236 13.9227 19.9136 13.9683C19.9422 13.966 19.971 13.9648 19.9998 13.9648C20.0288 13.9648 20.0576 13.966 20.0862 13.9683C20.6762 13.9227 21.1428 13.4171 21.1428 12.801C21.1428 12.1548 20.63 11.6291 19.9998 11.6291C19.3696 11.6291 18.8568 12.1548 18.8568 12.801ZM19.9998 17.7505L17.8623 22.1199H22.1376L19.9998 17.7505ZM25.1134 28.2029L23.2841 24.4636H16.7157L14.8865 28.2029H25.1134Z" fill="#282828"/>
</svg>
