<svg width="24" height="24" viewBox="0 0 24 24" fill="none" xmlns="http://www.w3.org/2000/svg">
<path d="M19.762 7.29171C19.2053 7.53838 18.6073 7.70504 17.9786 7.78038C18.6273 7.39224 19.1126 6.78135 19.344 6.06171C18.7345 6.4237 18.0675 6.67851 17.372 6.81504C16.9042 6.31562 16.2847 5.98459 15.6095 5.87336C14.9344 5.76212 14.2414 5.8769 13.6381 6.19988C13.0349 6.52285 12.5552 7.03595 12.2734 7.65951C11.9917 8.28307 11.9237 8.98221 12.08 9.64838C10.8451 9.58637 9.63705 9.26541 8.53425 8.70631C7.43145 8.14722 6.45853 7.36248 5.67863 6.40304C5.41197 6.86304 5.25863 7.39638 5.25863 7.96438C5.25834 8.47571 5.38426 8.97921 5.62522 9.4302C5.86618 9.88119 6.21474 10.2657 6.63997 10.5497C6.14682 10.534 5.66455 10.4008 5.2333 10.161V10.201C5.23325 10.9182 5.48132 11.6133 5.93542 12.1684C6.38952 12.7235 7.02168 13.1043 7.72463 13.2464C7.26716 13.3702 6.78753 13.3884 6.32197 13.2997C6.5203 13.9168 6.90663 14.4564 7.42688 14.843C7.94713 15.2296 8.57525 15.4438 9.2233 15.4557C8.12319 16.3193 6.76456 16.7878 5.36597 16.7857C5.11822 16.7858 4.87068 16.7713 4.62463 16.7424C6.04428 17.6552 7.69686 18.1396 9.38463 18.1377C15.098 18.1377 18.2213 13.4057 18.2213 9.30171C18.2213 9.16838 18.218 9.03371 18.212 8.90038C18.8195 8.46103 19.3439 7.91697 19.7606 7.29371L19.762 7.29171V7.29171Z" fill="#282828"/>
</svg>
