<svg width="24" height="24" viewBox="0 0 24 24" fill="none" xmlns="http://www.w3.org/2000/svg">
<path fill-rule="evenodd" clip-rule="evenodd" d="M20.106 6.82812C20.4108 6.67579 20.7496 6.60388 21.09 6.61921C21.4304 6.63455 21.7613 6.73661 22.0512 6.91573C22.3411 7.09485 22.5805 7.34507 22.7465 7.64266C22.9126 7.94026 22.9998 8.27534 23 8.61612V15.3807C22.9998 15.7214 22.9126 16.0571 22.7465 16.3546C22.5805 16.6522 22.3411 16.9025 22.0512 17.0816C21.7613 17.2607 21.4304 17.3628 21.09 17.3781C20.7495 17.3934 20.4108 17.3215 20.106 17.1692L15.5529 14.8931C15.214 14.7237 15 14.3775 15 13.9987V9.99865C15 9.61985 15.214 9.27356 15.5529 9.10419L20.106 6.82812ZM17 10.6167V13.3806L21 15.3801L21 8.61719L17 10.6167Z" fill="#282828"/>
<path fill-rule="evenodd" clip-rule="evenodd" d="M4 6C3.44772 6 3 6.44772 3 7V17C3 17.5523 3.44772 18 4 18H14C14.5523 18 15 17.5523 15 17V7C15 6.44772 14.5523 6 14 6H4ZM1 7C1 5.34315 2.34315 4 4 4H14C15.6569 4 17 5.34315 17 7V17C17 18.6569 15.6569 20 14 20H4C2.34315 20 1 18.6569 1 17V7Z" fill="#282828"/>
</svg>
