<svg width="20" height="20" viewBox="0 0 20 20" fill="none" xmlns="http://www.w3.org/2000/svg">
<g clip-path="url(#clip0_3201_16616)">
<path fill-rule="evenodd" clip-rule="evenodd" d="M10.0003 2.33203L10.0672 2.33212L10.2538 2.33272C10.415 2.33341 10.6464 2.33479 10.9284 2.33755C11.492 2.34305 12.2596 2.35407 13.0733 2.37615C13.8856 2.39819 14.7513 2.43144 15.509 2.4819C16.2409 2.53063 16.9502 2.5997 17.4043 2.71057C17.416 2.71344 17.4277 2.71651 17.4393 2.7198C18.0009 2.8787 18.5107 3.18299 18.9171 3.60195C19.3235 4.0209 19.6121 4.53968 19.7538 5.10589L18.7837 5.3487L19.7678 5.17118C20.0429 6.69579 20.1765 8.24253 20.1671 9.7917C20.1723 11.3177 20.0386 12.841 19.7679 14.3428C19.7639 14.3647 19.7592 14.3865 19.7538 14.4082C19.6121 14.9744 19.3235 15.4932 18.9171 15.9121C18.5107 16.3311 18.0009 16.6354 17.4393 16.7943L17.4254 16.7981C16.9634 16.9216 16.2468 16.9976 15.5153 17.051C14.7559 17.1064 13.8888 17.1429 13.0759 17.167C12.2615 17.1912 11.4933 17.2033 10.9293 17.2093C10.6471 17.2123 10.4155 17.2138 10.2542 17.2146L10.0673 17.2153L10.0005 17.2154L9.93345 17.2153L9.74655 17.2146C9.58525 17.2138 9.35367 17.2123 9.07147 17.2093C8.50746 17.2033 7.73933 17.1912 6.92486 17.167C6.11198 17.1429 5.24492 17.1064 4.48546 17.051C3.75397 16.9976 3.03735 16.9216 2.57537 16.7981L2.56981 16.7966C2.0196 16.646 1.51752 16.3561 1.11208 15.9549C0.70664 15.5536 0.411543 15.0545 0.255303 14.5059C0.246264 14.4742 0.238802 14.442 0.232943 14.4095C-0.0420238 12.8852 -0.175667 11.3386 -0.166287 9.7897C-0.17354 8.25234 -0.039908 6.71754 0.232936 5.20456C0.23689 5.18263 0.241577 5.16084 0.246987 5.13922C0.388707 4.57302 0.677338 4.05424 1.08373 3.63528C1.49011 3.21632 1.99987 2.91203 2.5615 2.75313L2.57537 2.74932C3.03735 2.62576 3.75397 2.54975 4.48546 2.4964C5.24492 2.44101 6.11198 2.40454 6.92486 2.38039C7.73933 2.35619 8.50746 2.34411 9.07147 2.33808C9.35367 2.33506 9.58525 2.33355 9.74655 2.33279L9.93345 2.33213L10.0003 2.33203ZM17.8063 5.56338C17.7477 5.34956 17.6361 5.15382 17.4815 4.99446C17.3243 4.83238 17.1281 4.71352 16.9118 4.64919C16.6428 4.58659 16.1058 4.52607 15.3761 4.47748C14.6557 4.4295 13.8193 4.39712 13.0191 4.37541C12.2204 4.35374 11.465 4.34288 10.9089 4.33745C10.631 4.33474 10.4033 4.33338 10.2453 4.33271L10.0631 4.33211L9.93787 4.33212L9.75593 4.33277C9.59809 4.33351 9.37055 4.33499 9.09286 4.33796C8.53707 4.34391 7.78229 4.35579 6.98426 4.37951C6.18464 4.40327 5.34962 4.43868 4.63095 4.4911C3.89111 4.54506 3.35658 4.61207 3.09911 4.67955C2.87886 4.74316 2.67899 4.86318 2.51931 5.02779C2.36474 5.18715 2.25308 5.38288 2.19451 5.59669C1.94754 6.97909 1.82678 8.3811 1.83372 9.78542L1.83377 9.79664C1.82493 11.2056 1.94456 12.6123 2.19131 13.9994C2.25591 14.2009 2.36822 14.3842 2.51895 14.5333C2.67922 14.692 2.87754 14.8067 3.09488 14.8667C3.35068 14.9346 3.88703 15.002 4.63095 15.0563C5.34962 15.1087 6.18464 15.1441 6.98426 15.1679C7.78229 15.1916 8.53707 15.2035 9.09286 15.2094C9.37055 15.2124 9.59809 15.2139 9.75593 15.2146L9.93787 15.2153H10.0629L10.2449 15.2146C10.4027 15.2139 10.6302 15.2124 10.9079 15.2094C11.4637 15.2035 12.2185 15.1916 13.0165 15.1679C13.8161 15.1441 14.6512 15.1087 15.3698 15.0563C16.1097 15.0023 16.6442 14.9353 16.9017 14.8678C17.1219 14.8042 17.3218 14.6842 17.4815 14.5196C17.636 14.3603 17.7477 14.1645 17.8063 13.9507C18.0513 12.5788 18.1721 11.1876 18.1671 9.79396L18.167 9.78409C18.1759 8.36909 18.0552 6.95628 17.8063 5.56338Z" fill="#282828"/>
<path fill-rule="evenodd" clip-rule="evenodd" d="M7.62267 6.20201C7.93048 6.02296 8.31029 6.0211 8.61984 6.19714L13.4115 8.92214C13.7241 9.09991 13.9172 9.43181 13.9172 9.79141C13.9172 10.151 13.7241 10.4829 13.4115 10.6607L8.61984 13.3857C8.31029 13.5617 7.93048 13.5599 7.62267 13.3808C7.31486 13.2017 7.12549 12.8725 7.12549 12.5164V7.06641C7.12549 6.7103 7.31486 6.38107 7.62267 6.20201ZM9.12549 8.7855V10.7973L10.8943 9.79141L9.12549 8.7855Z" fill="#282828"/>
</g>
<defs>
<clipPath id="clip0_3201_16616">
<rect width="20" height="20" fill="white"/>
</clipPath>
</defs>
</svg>
