<svg width="61" height="62" viewBox="0 0 61 62" fill="none" xmlns="http://www.w3.org/2000/svg">
<path d="M58.8844 20.834C57.5947 20.1251 55.6306 20.2682 54.3654 22.2568C54.3617 22.2628 54.3579 22.2688 54.3542 22.2748L49.6509 29.9722C49.0845 29.6459 48.4349 29.5004 47.7741 29.56C46.9454 29.6341 46.1998 30.0228 45.6747 30.6548C45.3389 31.0589 44.2299 32.4444 43.0557 33.9112C41.9405 35.3043 40.7873 36.7449 40.4655 37.1322C37.4593 40.6413 32.8139 42.0729 30.5531 46.6195C29.1653 43.8515 26.8266 42.1543 24.6879 40.6025C23.1806 39.5087 21.7569 38.4757 20.6407 37.1324C20.3188 36.7448 19.1657 35.3043 18.0505 33.9113C16.8763 32.4444 15.7673 31.059 15.4314 30.6549C14.9064 30.023 14.161 29.6342 13.3323 29.5601C12.6715 29.5011 12.0217 29.6459 11.4552 29.9723L6.75191 22.2749C6.74828 22.2688 6.74452 22.2628 6.74066 22.257C5.47551 20.2682 3.51149 20.1252 2.22184 20.834C0.693886 21.6739 0.123847 23.5481 0.895621 25.1937C0.897379 25.1973 0.899138 25.2009 0.900896 25.2047C2.56131 28.9147 5.34809 35.87 7.24622 39.9863C9.03089 43.9122 9.83138 45.0155 12.9565 47.8559L17.1723 51.688V52.046H16.4866C15.8392 52.046 15.3144 52.5709 15.3144 53.2182V60.2513C15.3144 60.8986 15.8392 61.4235 16.4866 61.4235H44.6193C45.2666 61.4235 45.7915 60.8986 45.7915 60.2513V53.2182C45.7915 52.5709 45.2666 52.046 44.6193 52.046H43.9337V51.688L48.1496 47.8559C51.2746 45.0156 52.075 43.9122 53.8599 39.9863C55.2299 36.9727 56.8465 33.1154 58.1456 30.0158C59.0739 27.801 59.8756 25.8883 60.205 25.2046C60.2067 25.2009 60.2085 25.1973 60.2102 25.1935C60.9825 23.548 60.4122 21.6738 58.8844 20.834ZM19.1332 50.3019L14.5336 46.121C11.6547 43.5043 11.0287 42.641 9.38079 39.016C8.02527 36.0342 6.41608 32.1948 5.12303 29.1096C4.14624 26.7789 3.37399 24.9366 3.01647 24.1935C2.68861 23.4891 3.07239 23.0419 3.35149 22.8884C3.81955 22.6314 4.34457 22.8625 4.75765 23.5068L9.98588 32.0632C9.88988 32.6907 9.96865 33.4701 10.3497 34.433C11.4437 37.1978 12.8 39.9595 14.0705 42.01C14.4115 42.5603 15.1339 42.7301 15.6844 42.3888C16.2346 42.048 16.4044 41.3254 16.0634 40.7749C14.8628 38.8375 13.5748 36.2115 12.5297 33.5703C12.0829 32.4413 12.3796 32.192 12.4914 32.0981C12.6716 31.9467 12.8966 31.8752 13.1238 31.8949C13.3263 31.9129 13.5055 32.0047 13.6287 32.1529C14.2929 32.9529 18.2 37.864 18.8378 38.6304C20.1421 40.2003 21.7533 41.3693 23.3114 42.5C26.3312 44.6911 28.9408 46.5847 29.3813 50.9825V52.0457H19.5172V51.1692C19.5169 50.8391 19.3776 50.5241 19.1332 50.3019ZM17.6591 54.3902H29.381V59.079H17.6591V54.3902ZM43.4474 59.079H31.7254V54.3902H43.4474V59.079ZM58.0903 24.1931C57.733 24.9358 56.9608 26.7785 55.9837 29.1095C54.6907 32.1946 53.0814 36.0341 51.7259 39.016C50.0779 42.6411 49.4519 43.5043 46.5729 46.1211L41.9733 50.3019C41.7289 50.5241 41.5897 50.8391 41.5897 51.1693V52.0458H31.7254V50.9821C32.1662 46.5847 34.7757 44.6911 37.7953 42.5C39.3534 41.3694 40.9645 40.2003 42.269 38.6304C42.6043 38.2266 43.7126 36.842 44.886 35.3761C46.0021 33.982 47.1558 32.5405 47.4777 32.153C47.601 32.0046 47.7804 31.9129 47.9829 31.8949C48.2093 31.8752 48.4349 31.9466 48.6153 32.0981C48.7271 32.192 49.0236 32.4413 48.5769 33.5703C47.5319 36.2115 46.244 38.8375 45.0432 40.7749C44.7022 41.3252 44.8718 42.0477 45.4221 42.3888C45.9722 42.7297 46.6947 42.5601 47.0359 42.01C48.3067 39.9595 49.6628 37.1978 50.7567 34.433C51.1379 33.4701 51.2167 32.6906 51.1207 32.0632L56.3487 23.507C56.7618 22.8626 57.287 22.6312 57.7551 22.8884C58.0341 23.0419 58.4178 23.4889 58.0903 24.1931Z" fill="#43889C"/>
<path fill-rule="evenodd" clip-rule="evenodd" d="M32.8725 3.99695L30.2385 2L27.6046 3.99695L24.407 3.16L22.7378 6.01278L19.4633 6.46325L19.0128 9.73778L16.16 11.407L16.9968 14.6046L15 17.2385L16.9968 19.8725L16.16 23.0701L19.0128 24.7393L19.4633 28.0138L22.7378 28.4643L24.407 31.3172L27.6046 30.4802L30.2385 32.4771L32.8725 30.4802L36.0701 31.3172L37.7393 28.4643L41.0138 28.0138L41.4643 24.7394L44.3172 23.0701L43.4802 19.8725L45.4771 17.2385L43.4802 14.6047L44.3172 11.407L41.4643 9.73778L41.0138 6.46325L37.7394 6.01278L36.0701 3.16L32.8725 3.99695ZM38.0002 22.7844C38.0002 23.3718 37.5238 23.8482 36.9363 23.8482H24.1699C23.5823 23.8482 23.106 23.3719 23.1061 22.7844C23.1061 19.6667 25.032 16.9903 27.7564 15.8823C24.8226 13.3478 26.6282 8.42106 30.5531 8.42212C34.4781 8.42106 36.2838 13.3471 33.3499 15.8823C36.0744 16.9903 38.0002 19.6667 38.0002 22.7844Z" fill="#EF7858"/>
<path d="M30.2385 2L30.8427 1.20313L30.2385 0.745083L29.6344 1.20313L30.2385 2ZM32.8725 3.99695L32.2683 4.79382L32.6556 5.08741L33.1257 4.96436L32.8725 3.99695ZM27.6046 3.99695L27.3514 4.96436L27.8215 5.08741L28.2088 4.79382L27.6046 3.99695ZM24.407 3.16L24.6602 2.19259L23.9268 2.00062L23.5439 2.65499L24.407 3.16ZM22.7378 6.01278L22.8741 7.00345L23.3555 6.93722L23.6009 6.5178L22.7378 6.01278ZM19.4633 6.46325L19.327 5.47258L18.5759 5.57591L18.4726 6.32697L19.4633 6.46325ZM19.0128 9.73778L19.5178 10.6009L19.9372 10.3555L20.0034 9.87407L19.0128 9.73778ZM16.16 11.407L15.655 10.5439L15.0006 10.9267L15.1926 11.6602L16.16 11.407ZM16.9968 14.6046L17.7937 15.2088L18.0873 14.8215L17.9643 14.3514L16.9968 14.6046ZM15 17.2385L14.2031 16.6344L13.7451 17.2385L14.2031 17.8427L15 17.2385ZM16.9968 19.8725L17.9643 20.1256L18.0873 19.6556L17.7937 19.2683L16.9968 19.8725ZM16.16 23.0701L15.1926 22.8169L15.0006 23.5503L15.655 23.9332L16.16 23.0701ZM19.0128 24.7393L20.0034 24.603L19.9372 24.1216L19.5178 23.8762L19.0128 24.7393ZM19.4633 28.0138L18.4726 28.1501L18.5759 28.9012L19.327 29.0045L19.4633 28.0138ZM22.7378 28.4643L23.6009 27.9593L23.3555 27.5399L22.8741 27.4736L22.7378 28.4643ZM24.407 31.3172L23.5439 31.8222L23.9267 32.4766L24.6602 32.2846L24.407 31.3172ZM27.6046 30.4802L28.2088 29.6834L27.8215 29.3898L27.3514 29.5128L27.6046 30.4802ZM30.2385 32.4771L29.6344 33.274L30.2385 33.732L30.8427 33.274L30.2385 32.4771ZM32.8725 30.4802L33.1257 29.5128L32.6556 29.3898L32.2683 29.6834L32.8725 30.4802ZM36.0701 31.3172L35.8169 32.2846L36.5503 32.4766L36.9332 31.8222L36.0701 31.3172ZM37.7393 28.4643L37.603 27.4736L37.1216 27.5399L36.8762 27.9593L37.7393 28.4643ZM41.0138 28.0138L41.1501 29.0045L41.9012 28.9012L42.0045 28.1501L41.0138 28.0138ZM41.4643 24.7394L40.9593 23.8763L40.5399 24.1217L40.4736 24.6031L41.4643 24.7394ZM44.3172 23.0701L44.8222 23.9332L45.4766 23.5503L45.2846 22.8169L44.3172 23.0701ZM43.4802 19.8725L42.6834 19.2683L42.3898 19.6556L42.5128 20.1257L43.4802 19.8725ZM45.4771 17.2385L46.274 17.8427L46.732 17.2385L46.274 16.6344L45.4771 17.2385ZM43.4802 14.6047L42.5128 14.3515L42.3898 14.8216L42.6834 15.2089L43.4802 14.6047ZM44.3172 11.407L45.2846 11.6602L45.4766 10.9267L44.8222 10.5439L44.3172 11.407ZM41.4643 9.73778L40.4736 9.87406L40.5399 10.3555L40.9593 10.6009L41.4643 9.73778ZM41.0138 6.46325L42.0045 6.32697L41.9012 5.57591L41.1501 5.47258L41.0138 6.46325ZM37.7394 6.01278L36.8763 6.51782L37.1217 6.93722L37.6031 7.00345L37.7394 6.01278ZM36.0701 3.16L36.9332 2.65496L36.5503 2.00063L35.8169 2.19259L36.0701 3.16ZM23.1061 22.7844L24.1061 22.7845V22.7844H23.1061ZM27.7564 15.8823L28.1332 16.8086L29.6461 16.1933L28.4101 15.1256L27.7564 15.8823ZM30.5531 8.42212L30.5529 9.42212H30.5534L30.5531 8.42212ZM33.3499 15.8823L32.6961 15.1257L31.4605 16.1934L32.9732 16.8086L33.3499 15.8823ZM29.6344 2.79687L32.2683 4.79382L33.4766 3.20009L30.8427 1.20313L29.6344 2.79687ZM28.2088 4.79382L30.8427 2.79687L29.6344 1.20313L27.0005 3.20009L28.2088 4.79382ZM24.1538 4.12742L27.3514 4.96436L27.8578 3.02954L24.6602 2.19259L24.1538 4.12742ZM23.6009 6.5178L25.2701 3.66502L23.5439 2.65499L21.8747 5.50776L23.6009 6.5178ZM19.5995 7.45392L22.8741 7.00345L22.6015 5.02211L19.327 5.47258L19.5995 7.45392ZM20.0034 9.87407L20.4539 6.59954L18.4726 6.32697L18.0221 9.60149L20.0034 9.87407ZM16.665 12.2701L19.5178 10.6009L18.5078 8.87467L15.655 10.5439L16.665 12.2701ZM17.9643 14.3514L17.1274 11.1538L15.1926 11.6602L16.0294 14.8578L17.9643 14.3514ZM15.7969 17.8427L17.7937 15.2088L16.2 14.0005L14.2031 16.6344L15.7969 17.8427ZM17.7937 19.2683L15.7969 16.6344L14.2031 17.8427L16.2 20.4766L17.7937 19.2683ZM17.1274 23.3233L17.9643 20.1256L16.0294 19.6193L15.1926 22.8169L17.1274 23.3233ZM19.5178 23.8762L16.665 22.207L15.655 23.9332L18.5078 25.6024L19.5178 23.8762ZM20.4539 27.8775L20.0034 24.603L18.0221 24.8756L18.4726 28.1501L20.4539 27.8775ZM22.8741 27.4736L19.5995 27.0232L19.327 29.0045L22.6015 29.455L22.8741 27.4736ZM25.2701 30.8122L23.6009 27.9593L21.8747 28.9693L23.5439 31.8222L25.2701 30.8122ZM27.3514 29.5128L24.1538 30.3498L24.6602 32.2846L27.8578 31.4477L27.3514 29.5128ZM30.8427 31.6802L28.2088 29.6834L27.0005 31.2771L29.6344 33.274L30.8427 31.6802ZM32.2683 29.6834L29.6344 31.6802L30.8427 33.274L33.4766 31.2771L32.2683 29.6834ZM36.3233 30.3498L33.1257 29.5128L32.6193 31.4477L35.8169 32.2846L36.3233 30.3498ZM36.8762 27.9593L35.207 30.8122L36.9332 31.8222L38.6024 28.9693L36.8762 27.9593ZM40.8775 27.0232L37.603 27.4736L37.8756 29.455L41.1501 29.0045L40.8775 27.0232ZM40.4736 24.6031L40.0232 27.8775L42.0045 28.1501L42.455 24.8757L40.4736 24.6031ZM43.8122 22.207L40.9593 23.8763L41.9693 25.6025L44.8222 23.9332L43.8122 22.207ZM42.5128 20.1257L43.3498 23.3233L45.2846 22.8169L44.4477 19.6193L42.5128 20.1257ZM44.6802 16.6344L42.6834 19.2683L44.2771 20.4766L46.274 17.8427L44.6802 16.6344ZM42.6834 15.2089L44.6802 17.8427L46.274 16.6344L44.2771 14.0006L42.6834 15.2089ZM43.3498 11.1538L42.5128 14.3515L44.4477 14.8579L45.2846 11.6602L43.3498 11.1538ZM40.9593 10.6009L43.8122 12.2701L44.8222 10.5439L41.9693 8.87466L40.9593 10.6009ZM40.0232 6.59954L40.4736 9.87406L42.455 9.6015L42.0045 6.32697L40.0232 6.59954ZM37.6031 7.00345L40.8775 7.45392L41.1501 5.47258L37.8757 5.02211L37.6031 7.00345ZM35.207 3.66505L36.8763 6.51782L38.6025 5.50773L36.9332 2.65496L35.207 3.66505ZM33.1257 4.96436L36.3233 4.12742L35.8169 2.19259L32.6193 3.02954L33.1257 4.96436ZM36.9363 24.8482C38.0761 24.8482 39.0002 23.9241 39.0002 22.7844H37.0002C37.0002 22.8195 36.9715 22.8482 36.9363 22.8482V24.8482ZM24.1699 24.8482H36.9363V22.8482H24.1699V24.8482ZM22.1061 22.7842C22.1059 23.9242 23.0301 24.8482 24.1699 24.8482V22.8482C24.1346 22.8482 24.1061 22.8197 24.1061 22.7845L22.1061 22.7842ZM27.3797 14.956C24.2925 16.2115 22.1061 19.2449 22.1061 22.7844H24.1061C24.1061 20.0885 25.7715 17.7691 28.1332 16.8086L27.3797 14.956ZM30.5534 7.42212C25.6994 7.4208 23.4695 13.5004 27.1027 16.639L28.4101 15.1256C26.1757 13.1952 27.557 9.42131 30.5529 9.42212L30.5534 7.42212ZM34.0038 16.6389C37.6367 13.4996 35.407 7.4208 30.5529 7.42212L30.5534 9.42212C33.5492 9.42131 34.9308 13.1946 32.6961 15.1257L34.0038 16.6389ZM39.0002 22.7844C39.0002 19.2449 36.8139 16.2115 33.7267 14.956L32.9732 16.8086C35.3349 17.7691 37.0002 20.0885 37.0002 22.7844H39.0002Z" fill="#EF7858"/>
</svg>
