<svg width="61" height="61" viewBox="0 0 61 61" fill="none" xmlns="http://www.w3.org/2000/svg">
<g clip-path="url(#clip0_3205_7010)">
<path d="M45.7552 31.5234V36.6768H38.5316V31.5234H22.4687V36.6768H15.2452V31.5234H9.61373V50.5375H51.3866V31.5234H45.7552Z" fill="#A4D0CE"/>
<path d="M54.5626 11.4349H42.8927V7.60687C42.8927 5.51906 41.1941 3.82031 39.1061 3.82031H21.894C19.8061 3.82031 18.1074 5.51895 18.1074 7.60687V11.4349H6.43742C3.16355 11.4349 0.5 14.1042 0.5 17.3852V28.8238C0.5 30.4684 1.5316 31.8765 2.9818 32.4353V51.2371C2.9818 54.5146 5.64816 57.1809 8.92566 57.1809H52.0745C55.352 57.1809 58.0183 54.5146 58.0183 51.2371V32.4353C59.4684 31.8766 60.5 30.4685 60.5 28.8238V17.3852C60.5 14.1042 57.8364 11.4349 54.5626 11.4349ZM20.4511 7.60687C20.4511 6.81129 21.0983 6.16406 21.8939 6.16406H39.106C39.9016 6.16406 40.5488 6.81117 40.5488 7.60687V11.4349H20.4511V7.60687ZM52.0745 54.8372H8.92555C6.94051 54.8372 5.32543 53.2222 5.32543 51.2371V32.6923H14.073V36.6738C14.073 37.3209 14.5978 37.8457 15.2449 37.8457H22.4684C23.1155 37.8457 23.6403 37.3209 23.6403 36.6738V32.6923H37.3595V36.6738C37.3595 37.3209 37.8842 37.8457 38.5313 37.8457H45.7549C46.402 37.8457 46.9268 37.3209 46.9268 36.6738V32.6923H55.6743V51.2371C55.6745 53.2222 54.0595 54.8372 52.0745 54.8372ZM16.4169 35.502V27.246H21.2967V35.502H16.4169ZM39.7033 35.502V27.246H44.5831V35.502H39.7033ZM58.1562 28.8238C58.1562 29.6645 57.4722 30.3485 56.6315 30.3485H46.9269V26.074C46.9269 25.4269 46.4021 24.9021 45.755 24.9021H38.5314C37.8843 24.9021 37.3596 25.4269 37.3596 26.074V30.3485H23.6404V26.074C23.6404 25.4269 23.1157 24.9021 22.4686 24.9021H15.245C14.5979 24.9021 14.0731 25.4269 14.0731 26.074V30.3485H4.36848C3.52777 30.3485 2.84375 29.6645 2.84375 28.8238V17.3852C2.84375 15.3966 4.4559 13.7787 6.43742 13.7787H54.5626C56.5441 13.7787 58.1562 15.3967 58.1562 17.3852V28.8238Z" fill="#408F8B"/>
</g>
<defs>
<clipPath id="clip0_3205_7010">
<rect width="60" height="60" fill="white" transform="translate(0.5 0.5)"/>
</clipPath>
</defs>
</svg>
