<svg width="59" height="60" viewBox="0 0 59 60" fill="none" xmlns="http://www.w3.org/2000/svg">
<g clip-path="url(#clip0_2925_13185)">
<path fill-rule="evenodd" clip-rule="evenodd" d="M46.9252 53.199C47.0651 46.5822 40.7999 41.02 34.4532 39.5586C32.9919 40.4829 31.2539 41.0199 29.3922 41.0199C27.5305 41.0199 25.7958 40.4829 24.3311 39.5586C17.9845 41.0199 11.7193 46.5821 11.8625 53.199L11.9374 56.6749L29.3922 51.4153L46.8502 56.6749L46.9252 53.199Z" fill="#EF7858"/>
<path d="M58.7316 23.1149C58.6206 22.7735 58.3564 22.5037 58.0176 22.3855L41.1272 16.4946L30.3064 2.25432C30.0893 1.96853 29.751 1.80078 29.3922 1.80078C29.0334 1.80078 28.6952 1.96853 28.478 2.25432L17.6572 16.4946L0.769956 22.3855C0.431123 22.5036 0.167152 22.7735 0.0562359 23.1148C-0.05468 23.4561 0.000318647 23.8297 0.204928 24.1244L10.4031 38.8184L10.7895 56.6988C10.7972 57.0576 10.9723 57.3921 11.2625 57.603C11.5529 57.8139 11.925 57.8769 12.2687 57.7734L29.3922 52.6136L46.519 57.7734C46.6277 57.8061 46.7392 57.8222 46.8501 57.8222C47.0899 57.8222 47.3266 57.7471 47.5252 57.6029C47.8154 57.392 47.9904 57.0574 47.9981 56.6986L48.3812 38.8184L58.5826 24.1245C58.7874 23.8297 58.8425 23.456 58.7316 23.1149ZM46.2976 37.7929C46.1689 37.9783 46.0977 38.1974 46.0929 38.4231L45.7346 55.1386L29.7234 50.3149C29.5073 50.2499 29.277 50.2499 29.0609 50.3149L13.0527 55.1386L12.6915 38.4229C12.6866 38.1974 12.6155 37.9783 12.4869 37.793L2.95291 24.0562L18.7404 18.549C18.9534 18.4747 19.1399 18.3392 19.2764 18.1594L29.3922 4.84672L39.5082 18.1594C39.6447 18.3391 39.8312 18.4746 40.0443 18.549L55.8345 24.0562L46.2976 37.7929Z" fill="#43889C"/>
<path d="M29.3922 18.0234C23.5331 18.0234 18.7665 22.7902 18.7665 28.6492V31.5426C18.7665 37.4017 23.5332 42.1684 29.3922 42.1684C35.2513 42.1684 40.018 37.4017 40.018 31.5426V28.6492C40.018 22.7902 35.2514 18.0234 29.3922 18.0234ZM29.3922 39.872C25.1582 39.872 21.6543 36.6956 21.1325 32.601C23.9088 32.2916 25.9998 31.2959 27.3711 29.6285C27.6505 29.8269 27.9043 30.0141 28.1422 30.1899C30.3665 31.8317 31.5998 32.5568 37.6471 32.6403C37.1078 36.7159 33.6128 39.872 29.3922 39.872ZM37.7216 30.3451C32.1248 30.2751 31.3124 29.6757 29.5059 28.3421C29.0043 27.9718 28.4358 27.5522 27.6975 27.0758C27.4327 26.905 27.1092 26.8503 26.8029 26.9251C26.4967 26.9997 26.2347 27.1971 26.0782 27.4707C25.1671 29.0638 23.5194 29.9936 21.0628 30.2979V28.6492C21.0628 24.0564 24.7993 20.3198 29.3921 20.3198C33.9849 20.3198 37.7215 24.0564 37.7215 28.6492V30.3451H37.7216Z" fill="#43889C"/>
</g>
<defs>
<clipPath id="clip0_2925_13185">
<rect width="58.7878" height="58.7878" fill="white" transform="translate(0 0.417969)"/>
</clipPath>
</defs>
</svg>
