<svg width="54" height="54" viewBox="0 0 54 54" fill="none" xmlns="http://www.w3.org/2000/svg">
<g clip-path="url(#clip0_3436_3005)">
<path fill-rule="evenodd" clip-rule="evenodd" d="M13.8154 29.7391C13.8154 37.0208 19.7184 42.9238 27.0002 42.9238C35.4963 43.0491 41.9857 34.607 39.7683 26.4375H14.2323C13.9601 27.4927 13.8154 28.599 13.8154 29.7391Z" fill="#EF7858"/>
<path d="M50.9512 25.6927C50.7533 25.4949 50.4851 25.3837 50.2053 25.3837H45.9861V9.48805H47.041C47.4361 9.48805 47.7981 9.26717 47.9789 8.91593C48.1597 8.56458 48.129 8.14162 47.8994 7.82012L42.6255 0.43664C42.2334 -0.1456 41.3009 -0.145494 40.9088 0.43664L35.6349 7.82012C35.4053 8.14162 35.3746 8.56458 35.5554 8.91593C35.7362 9.26717 36.0982 9.48805 36.4933 9.48805H37.5481V25.3837H31.2194V14.762H32.2741C32.6693 14.762 33.0313 14.5411 33.2121 14.1898C33.3929 13.8385 33.3622 13.4155 33.1325 13.094L27.8586 5.71055C27.4664 5.12842 26.5341 5.12842 26.142 5.71055L20.868 13.094C20.3668 13.7718 20.8837 14.7758 21.7263 14.762H22.7811V25.3837H16.4524V20.036H17.5072C18.3502 20.0498 18.8666 19.0456 18.3655 18.3682L13.0916 10.9847C12.6995 10.4024 11.767 10.4025 11.375 10.9847L6.10109 18.3682C5.59986 19.046 6.1167 20.0499 6.95936 20.036H8.01415V25.3837H3.79502C3.21246 25.3837 2.74023 25.8561 2.74023 26.4385V33.0417C2.74023 33.5911 3.16194 34.0484 3.70958 34.093L6.64409 34.3315C7.16642 36.663 8.07765 38.8611 9.36132 40.8854L7.45321 43.1312C7.09754 43.5499 7.12275 44.1714 7.51123 44.56L12.1803 49.2291C12.5689 49.6176 13.1905 49.6428 13.6091 49.2871L15.8546 47.3794C17.8783 48.6629 20.0764 49.5744 22.4089 50.097L22.6474 53.0308C22.6919 53.5784 23.1493 54.0001 23.6987 54.0001H30.3018C30.8512 54.0001 31.3086 53.5784 31.3531 53.0308L31.5917 50.0962C33.9232 49.574 36.1212 48.6626 38.1456 47.379L40.3914 49.2871C40.8101 49.6427 41.4316 49.6176 41.8202 49.2291L46.4893 44.56C46.8778 44.1714 46.903 43.5499 46.5474 43.1312L44.6397 40.8858C45.9231 38.8619 46.8347 36.6639 47.3572 34.3313L50.291 34.0929C50.8385 34.0483 51.2602 33.591 51.2602 33.0415L51.2603 26.4384C51.2601 26.1588 51.149 25.8905 50.9512 25.6927V25.6927ZM38.6027 7.37848H38.5428L41.7671 2.86454L44.9913 7.37848H44.9313C44.3489 7.37848 43.8765 7.85081 43.8765 8.43326V25.3837H39.6575V8.43326C39.6575 7.85081 39.1852 7.37848 38.6027 7.37848V7.37848ZM23.8358 12.6524H23.7759L27.0001 8.13845L30.2244 12.6524H30.1645C29.582 12.6524 29.1097 13.1247 29.1097 13.7072V25.3837H24.8906V13.7072C24.8906 13.1247 24.4183 12.6524 23.8358 12.6524ZM9.06882 17.9264H9.00891L12.2332 13.4125L15.4574 17.9264H15.3975C14.815 17.9264 14.3427 18.3987 14.3427 18.9812V25.3837H10.1236V18.9812C10.1236 18.3987 9.65138 17.9264 9.06882 17.9264V17.9264ZM49.1505 32.069L46.3964 32.293C45.9211 32.3316 45.5308 32.6844 45.4446 33.1535C44.9662 35.7544 43.9601 38.1812 42.4541 40.3664C42.1835 40.7591 42.2101 41.2845 42.5187 41.6478L44.3096 43.7558L41.0159 47.0496L38.9076 45.2584C38.5443 44.9496 38.0188 44.9233 37.6263 45.1936C35.44 46.6997 33.0134 47.7058 30.4136 48.1838C29.9446 48.27 29.5917 48.6603 29.5531 49.1356L29.3292 51.8905H24.6711L24.4471 49.1364C24.4084 48.661 24.0557 48.2707 23.5866 48.1845C20.9857 47.7062 18.5589 46.7 16.3738 45.194C15.9811 44.9236 15.4557 44.95 15.0924 45.2587L12.9844 47.0496L9.69062 43.7558L11.4819 41.6475C11.7906 41.2841 11.8172 40.7588 11.5466 40.3662C10.0405 38.18 9.03454 35.7535 8.55662 33.1537C8.47034 32.6845 8.08007 32.3317 7.60468 32.2931L4.8498 32.0691V27.4933H49.1507L49.1505 32.069Z" fill="#43889C"/>
</g>
<defs>
<clipPath id="clip0_3436_3005">
<rect width="54" height="54" fill="white"/>
</clipPath>
</defs>
</svg>
