<svg width="61" height="61" viewBox="0 0 61 61" fill="none" xmlns="http://www.w3.org/2000/svg">
<g clip-path="url(#clip0_3205_6967)">
<path d="M25.1216 26.0986C25.1216 23.7545 27.0207 21.8542 29.3635 21.8542H34.7067V8.39676C34.7067 6.05266 32.8075 4.15234 30.4647 4.15234H4.74195C2.39914 4.15234 0.5 6.05254 0.5 8.39676V30.8918C0.5 33.2359 2.39914 35.1362 4.74195 35.1362H6.93594L8 39.2471L13 35.1362H25.1214L25.1216 26.0986Z" fill="#AFA1BF"/>
<path d="M55.0864 20.6836H29.3635C26.3724 20.6836 23.9498 23.1994 23.9498 26.1237V48.595C23.9498 51.5815 26.3784 54.0113 29.3635 54.0113H47.4985L51.2092 56.629C51.4094 56.7702 51.6458 56.8433 51.8849 56.8433C52.0038 56.8433 52.1233 56.8253 52.2393 56.7885C52.5885 56.6776 52.866 56.4096 52.9888 56.0643L53.7192 54.0113H55.0863C58.0715 54.0113 60.5 51.5815 60.5 48.595V26.0999C60.5001 23.1132 58.0715 20.6836 55.0864 20.6836ZM58.1563 48.595C58.1563 50.2893 56.7792 51.6675 55.0864 51.6675H52.8923C52.3966 51.6675 51.9543 51.9795 51.7881 52.4466L51.2983 53.8235L48.5457 51.8817C48.348 51.7423 48.1121 51.6674 47.8701 51.6674H29.3635C27.6707 51.6674 26.2935 50.289 26.2935 48.5949V26.0999C26.2935 24.4056 27.6707 23.0273 29.3635 23.0273H55.0864C56.7792 23.0273 58.1563 24.4057 58.1563 26.0999V48.595Z" fill="#624882"/>
<path d="M33 30.5H51.75" stroke="#624882" stroke-width="2.3" stroke-linecap="round"/>
<path d="M33 36.75H51.75" stroke="#624882" stroke-width="2.3" stroke-linecap="round"/>
<path d="M33 43H51.75" stroke="#624882" stroke-width="2.3" stroke-linecap="round"/>
</g>
<defs>
<clipPath id="clip0_3205_6967">
<rect width="60" height="60" fill="white" transform="translate(0.5 0.5)"/>
</clipPath>
</defs>
</svg>
