<svg width="61" height="61" viewBox="0 0 61 61" fill="none" xmlns="http://www.w3.org/2000/svg">
<g clip-path="url(#clip0_3205_6857)">
<path fill-rule="evenodd" clip-rule="evenodd" d="M26.975 34.5045C32.1494 34.5045 36.3698 30.2842 36.3698 25.1097C35.8893 12.6648 18.0588 12.6683 17.5801 25.1098C17.5801 30.2842 21.8004 34.5045 26.975 34.5045Z" fill="#A8C6D0"/>
<path d="M57.1548 34.8197C54.9114 29.8205 50.7714 21.5068 49.2242 16.3207C40.4329 -8.58881 3.84904 -2.58668 3.48828 23.8604C3.48816 28.4489 4.83597 31.7835 6.39669 35.6445C8.58639 41.062 11.0683 47.2021 11.067 59.3253C11.0558 59.955 11.6095 60.513 12.2413 60.4998H37.6033C38.2519 60.4998 38.7776 59.9739 38.7776 59.3254C38.7776 53.5099 39.7027 51.5747 45.1779 51.5747C53.9455 51.8092 51.976 45.929 52.224 39.7137H54.1234C56.5846 39.7518 58.286 37.0101 57.1548 34.8197ZM55.0009 36.8652C54.9082 37.0155 54.6374 37.3651 54.1226 37.3651H51.0496C50.401 37.3651 49.8753 37.891 49.8753 38.5394V45.1158C49.8753 47.4675 49.422 48.1571 49.027 48.4952C48.4286 49.0074 47.2775 49.2261 45.1779 49.2261C38.695 49.1475 36.4791 52.3441 36.4436 58.1512H13.4078C13.2478 46.3279 10.6636 39.9335 8.57418 34.7644C7.04481 30.9807 5.83687 27.9922 5.83687 23.86C6.1651 0.0610148 39.0838 -5.34865 46.9996 17.0745C48.5406 22.2608 52.7633 30.7808 55.0285 35.8175C55.2747 36.2554 55.1068 36.7244 55.0009 36.8652Z" fill="#36606E"/>
<path d="M29.7151 26.7205H13.3692L14.1046 25.9852C14.5632 25.5266 14.5632 24.783 14.1046 24.3243C13.646 23.8659 12.9024 23.8658 12.4438 24.3243L9.70371 27.0644C9.48352 27.2846 9.35974 27.5833 9.35974 27.8948C9.35974 28.2062 9.48352 28.505 9.70371 28.7252L12.4438 31.4653C12.6732 31.6945 12.9737 31.8093 13.2742 31.8093C14.2963 31.8261 14.8475 30.5272 14.1046 29.8045L13.3692 29.0691H29.7151C31.2699 29.0124 31.2719 26.7783 29.7151 26.7205Z" fill="#36606E"/>
<path d="M41.5066 18.7561C40.3687 17.6951 38.7848 19.2801 39.8458 20.417L40.5813 21.1525H24.2355C23.5869 21.1525 23.0611 21.6784 23.0611 22.3268C23.0611 22.9753 23.5869 23.5012 24.2355 23.5012H40.5813L39.8459 24.2366C38.7851 25.3729 40.3691 26.9588 41.5067 25.8974L44.2468 23.1572C44.467 22.937 44.5908 22.6383 44.5908 22.3268C44.5908 22.0154 44.467 21.7168 44.2468 21.4965C44.2468 21.4963 41.5066 18.7561 41.5066 18.7561Z" fill="#36606E"/>
</g>
<defs>
<clipPath id="clip0_3205_6857">
<rect width="60" height="60" fill="white" transform="translate(0.5 0.5)"/>
</clipPath>
</defs>
</svg>
