<svg width="51" height="51" viewBox="0 0 51 51" fill="none" xmlns="http://www.w3.org/2000/svg">
<g clip-path="url(#clip0_2930_13681)">
<path d="M38.5346 10.3687L38.015 10.8882L37.4954 10.3687C34.6438 7.51771 30.0205 7.51771 27.1687 10.3687C24.3171 13.2198 24.3171 17.8421 27.1687 20.6931L37.2445 30.7666C37.6701 31.1921 38.3601 31.1921 38.7856 30.7666L48.8614 20.6931C51.713 17.8421 51.713 13.2198 48.8614 10.3687C46.0097 7.51771 41.3862 7.51771 38.5346 10.3687Z" fill="#EF7858"/>
<path d="M41.0894 34.7754H29.7195C30.6963 33.2312 30.5123 31.1579 29.1677 29.8128L21.1632 21.8055C20.0373 20.6791 18.5403 20.0587 16.948 20.0587H8.54718V19.7734C8.54718 19.2233 8.10123 18.7773 7.55109 18.7773H0.996094C0.445951 18.7773 0 19.2233 0 19.7734V32.0544C0 32.6045 0.445951 33.0505 0.996094 33.0505H7.55109C8.10123 33.0505 8.54718 32.6045 8.54718 32.0544V31.5086C10.3065 31.7499 11.9279 32.6249 13.1008 33.9912L18.8749 40.717C18.9007 40.7471 18.9284 40.7757 18.9576 40.8025C20.3409 42.0705 22.1361 42.7689 24.0124 42.7689H41.0893C43.2924 42.7689 45.0849 40.9759 45.0849 38.7721C45.0849 36.5684 43.2925 34.7754 41.0894 34.7754ZM6.55499 31.0583H1.99219V20.7695H6.55499V31.0583ZM41.0894 40.7766H24.0124C22.6549 40.7766 21.3552 40.2782 20.346 39.3722L14.6124 32.6934C13.0601 30.8852 10.8899 29.753 8.54718 29.5017V22.0509H16.948C18.0081 22.0509 19.0046 22.4639 19.7542 23.2138L27.7587 31.2212C28.5401 32.0029 28.5401 33.2747 27.7587 34.0562C27.3508 34.4643 26.7928 34.6728 26.2253 34.6397L18.0814 26.4929C17.6925 26.1037 17.0618 26.1037 16.6727 26.4927C16.2836 26.8816 16.2835 27.5123 16.6725 27.9014L25.0545 36.2865C25.0547 36.2867 25.3919 36.5852 25.3919 36.5852C25.5645 36.7153 25.7941 36.7676 26.0103 36.7676H41.0894C42.1941 36.7676 43.0928 37.6668 43.0928 38.7721C43.0928 39.8775 42.1941 40.7766 41.0894 40.7766Z" fill="#43889C"/>
</g>
<defs>
<clipPath id="clip0_2930_13681">
<rect width="51" height="51" fill="white"/>
</clipPath>
</defs>
</svg>
