<svg width="56" height="56" viewBox="0 0 56 56" fill="none" xmlns="http://www.w3.org/2000/svg">
<g clip-path="url(#clip0_2930_13672)">
<path d="M48.897 9.653L42.8883 0.493828C42.686 0.185609 42.3423 0 41.9737 0H10.3826C9.77849 0 9.28882 0.489672 9.28882 1.09375V19.4121C9.28882 20.0161 9.77849 20.5058 10.3826 20.5058H23.7883V27.5834C23.7883 28.1874 24.278 28.6771 24.8821 28.6771C25.4862 28.6771 25.9758 28.1874 25.9758 27.5834V20.5058H28.9282V27.6393C28.9282 28.2434 29.4179 28.733 30.0219 28.733C30.626 28.733 31.1157 28.2434 31.1157 27.6393V20.5058H41.9737C42.3423 20.5058 42.686 20.3202 42.8882 20.012L48.897 10.8528C49.136 10.4886 49.136 10.0172 48.897 9.653ZM41.3832 18.3183H11.4763V2.1875H41.3832L46.6744 10.2529L41.3832 18.3183Z" fill="#43889C"/>
<path d="M36.848 53.8121H31.1156V39.5352C31.1156 38.9312 30.6259 38.4414 30.0219 38.4414C29.4178 38.4414 28.9281 38.9312 28.9281 39.5352V53.8121H25.9758V39.5909C25.9758 38.987 25.4861 38.4972 24.882 38.4972C24.2779 38.4972 23.7883 38.987 23.7883 39.5909V53.8121H18.0559C17.4518 53.8121 16.9622 54.3019 16.9622 54.9058C16.9622 55.5098 17.4518 55.9996 18.0559 55.9996H36.848C37.452 55.9996 37.9417 55.5098 37.9417 54.9058C37.9417 54.3019 37.452 53.8121 36.848 53.8121Z" fill="#43889C"/>
<path d="M12.9309 24.4844H44.5221V42.8028H12.9309L6.92212 33.6437L12.9309 24.4844Z" fill="#EF7858"/>
</g>
<defs>
<clipPath id="clip0_2930_13672">
<rect width="56" height="56" fill="white"/>
</clipPath>
</defs>
</svg>
