<svg width="154" height="9" viewBox="0 0 154 9" fill="none" xmlns="http://www.w3.org/2000/svg">
<path fill-rule="evenodd" clip-rule="evenodd" d="M34.808 3.96844C34.0402 5.86966 33.3324 7.49009 33.235 7.56933C33.1376 7.64871 32.887 7.74467 32.6781 7.78278C32.4692 7.82089 32.9135 7.85102 33.6655 7.84997C34.4174 7.84876 34.8448 7.81969 34.6149 7.78519C34.1091 7.70912 34.1009 7.52594 34.5481 6.31134L34.8811 5.4075L36.0397 5.36382L37.1981 5.32013L37.6071 6.33288C37.8319 6.88979 37.9833 7.4687 37.9437 7.61934C37.8779 7.86849 37.9824 7.89124 39.1105 7.87257C39.792 7.86127 40.197 7.82285 40.0107 7.78715C39.4798 7.68547 39.1529 7.14603 38.2249 4.84154C36.7957 1.29263 36.4532 0.511719 36.3257 0.511719C36.2587 0.511719 35.5757 2.06722 34.808 3.96844ZM44.9137 0.850657C44.8727 1.037 44.6614 2.40978 44.4444 3.90111C43.9386 7.37485 43.8519 7.7049 43.4225 7.78715C43.2362 7.82285 43.6307 7.85448 44.2991 7.8575C45.0028 7.86066 45.3544 7.81924 45.1346 7.75883C44.6479 7.62537 44.6037 7.30179 44.8241 5.48884C45.1652 2.68363 45.0237 2.68635 46.3748 5.45842C47.0316 6.80589 47.6255 7.87392 47.6944 7.83159C47.7635 7.78926 48.3258 6.70119 48.944 5.41368C49.5623 4.12601 50.1084 3.07259 50.1576 3.07259C50.2274 3.07259 50.5452 5.2781 50.8087 7.59177C50.8286 7.76681 51.0905 7.82511 51.9722 7.85072C53.0315 7.88145 53.0738 7.87106 52.588 7.70008C51.9541 7.47698 51.9854 7.58469 51.4397 3.75047C51.204 2.09343 50.955 0.674708 50.8864 0.597731C50.8168 0.5197 50.1488 1.71879 49.3759 3.30924L47.9903 6.1607L46.5617 3.33621C45.776 1.78281 45.1006 0.511719 45.0608 0.511719C45.021 0.511719 44.9549 0.664316 44.9137 0.850657ZM83.3388 3.41153C81.6742 7.50922 81.6437 7.56751 81.0824 7.72885C80.7071 7.83656 80.8809 7.86443 81.8966 7.859C82.6068 7.85509 83.026 7.82165 82.8283 7.78444C82.5179 7.72614 82.4796 7.65157 82.5489 7.24002C82.5931 6.97776 82.7696 6.44119 82.9411 6.04772L83.253 5.33218H84.3868H85.5205L85.8535 6.19836C86.0367 6.67483 86.1955 7.25072 86.2062 7.47849L86.226 7.8923L87.4413 7.87226C88.1097 7.86111 88.5112 7.82375 88.3336 7.78926C87.7487 7.67537 87.4235 7.10054 86.0695 3.78813C85.3329 1.98618 84.6823 0.511719 84.6237 0.511719C84.5649 0.511719 83.9867 1.81671 83.3388 3.41153ZM119.127 0.850657C117.849 4.14439 116.575 7.13504 116.338 7.39549C116.173 7.57746 115.893 7.75461 115.715 7.78926C115.538 7.82375 115.974 7.85208 116.684 7.85208C117.394 7.85208 117.821 7.8227 117.633 7.7867C117.193 7.70264 117.189 7.28175 117.616 6.1741L117.941 5.33218H119.041C119.742 5.33218 120.193 5.40042 120.285 5.52048C120.541 5.85354 121.109 7.58831 121.013 7.74316C120.953 7.83837 121.38 7.88807 122.181 7.87949C123.214 7.86834 123.356 7.84063 122.96 7.72719C122.395 7.56496 122.194 7.18053 120.546 3.11251C119.967 1.6846 119.441 0.515336 119.376 0.513981C119.312 0.512775 119.199 0.664316 119.127 0.850657ZM141.628 0.771118C141.553 0.918443 140.93 2.4393 140.243 4.15071C139.008 7.22662 138.773 7.64133 138.179 7.78474C138.012 7.82511 138.456 7.85674 139.166 7.85509C139.876 7.85343 140.304 7.8227 140.116 7.7867C139.676 7.70264 139.671 7.28175 140.099 6.1741L140.424 5.33218H141.523C142.225 5.33218 142.676 5.40042 142.768 5.52048C142.847 5.62412 143.068 6.14112 143.257 6.66971C143.54 7.4562 143.565 7.65398 143.397 7.75943C143.275 7.8361 143.747 7.88386 144.559 7.87708C145.625 7.86834 145.823 7.83611 145.458 7.73096C144.862 7.55954 144.558 6.9978 143.121 3.41018C142.515 1.89745 141.962 0.62455 141.892 0.581467C141.821 0.538534 141.703 0.623792 141.628 0.771118ZM150.61 0.676968C149.946 0.867527 149.344 1.61395 149.344 2.24588C149.344 3.10046 149.622 3.55403 150.874 4.73941C151.943 5.75277 152.079 5.94182 152.079 6.42417C152.079 7.54568 150.645 8.00091 149.788 7.15146C149.544 6.90923 149.344 6.57029 149.344 6.39826C149.344 6.22623 149.276 6.08538 149.192 6.08538C149.109 6.08538 149.04 6.44737 149.04 6.8898C149.04 7.693 149.041 7.6945 149.64 7.89048C150.327 8.11524 151.395 8.01748 152.079 7.66709C152.938 7.22617 153.283 5.87975 152.782 4.91927C152.658 4.67991 152.038 4.02493 151.406 3.46349C150.42 2.58873 150.256 2.37287 150.256 1.95259C150.256 1.34009 150.654 0.963637 151.303 0.963637C151.978 0.963637 152.369 1.2024 152.617 1.76639L152.826 2.24407L152.832 1.47205C152.838 0.726229 152.822 0.696855 152.363 0.605868C151.747 0.4837 151.207 0.505691 150.61 0.676968ZM0.587308 0.820684L1.08101 0.972224L1.07873 4.16909C1.07736 5.9272 1.02617 7.44263 0.9648 7.53663C0.903429 7.63063 0.716431 7.74136 0.549331 7.78278C0.242475 7.85886 3.22885 7.94638 4.34052 7.8938C4.67107 7.87829 5.2898 7.73624 5.71545 7.57837C8.5285 6.53474 8.83764 2.50257 6.20718 1.1655C5.44551 0.778355 5.29314 0.758469 2.75201 0.714784C0.801196 0.681191 0.225006 0.709361 0.587308 0.820684ZM12.3982 0.771421C13.0657 0.934112 13.0818 1.01486 13.0818 4.19199C13.0818 7.37561 13.0315 7.64043 12.3982 7.7876C12.2311 7.82631 12.8122 7.85674 13.6895 7.85509C14.5667 7.85343 15.1136 7.82256 14.9047 7.78655C14.2965 7.68171 14.1452 7.33719 14.1452 6.05661V4.88026H14.67C15.1461 4.88026 15.2784 4.98872 16.0936 6.04772C17.3913 7.73337 17.4828 7.79725 18.6731 7.84741C19.5659 7.88492 19.6343 7.8697 19.2341 7.72177C18.6267 7.49732 18.2407 7.13895 17.0813 5.72294L16.1063 4.53198L16.5507 4.0659C17.1572 3.4296 17.3353 3.04322 17.3353 2.36278C17.3353 1.0361 16.5716 0.655433 13.9602 0.679837C12.934 0.689477 12.2311 0.730598 12.3982 0.771421ZM57.0595 0.794618L57.5152 0.891333V4.27244V7.65353L57.1354 7.75822C56.9266 7.81592 57.7981 7.8697 59.0723 7.87799C61.3773 7.89305 61.3889 7.89139 61.391 7.55411C61.3921 7.36777 61.431 7.0457 61.4773 6.83857C61.5557 6.48909 61.5487 6.48367 61.3804 6.76325C61.0679 7.28281 60.7463 7.44113 60.0035 7.44113C58.9406 7.44113 58.8064 7.23747 58.8064 5.62277V4.2777H59.713C60.5458 4.2777 60.6381 4.31145 60.8463 4.69196L61.0729 5.10622L61.079 4.42548L61.0851 3.74459L59.9457 3.80169L58.8064 3.85878V2.48645V1.11428L59.528 1.11638C60.5599 1.11924 60.8608 1.23313 61.0434 1.69017C61.1929 2.06421 61.2058 2.04161 61.2209 1.3779L61.237 0.662358L58.9204 0.680131C57.6461 0.689922 56.8088 0.741442 57.0595 0.794618ZM66.212 0.830926L66.7057 0.972224L66.7034 4.16909C66.702 5.9272 66.6509 7.44263 66.5895 7.53663C66.5281 7.63063 66.3411 7.74136 66.174 7.78278C66.0069 7.82421 66.5538 7.85795 67.3893 7.8578C68.2248 7.8575 68.7033 7.81412 68.4526 7.76109L67.9969 7.66483L67.9532 6.27247L67.9096 4.88026H68.4157C68.8751 4.88026 69.0114 5.00017 69.8926 6.17998C70.9793 7.635 71.4044 7.89682 72.6633 7.88642L73.4656 7.87979L72.858 7.66272C72.5238 7.54342 72.2385 7.4446 72.2242 7.44339C72.2098 7.44219 71.6479 6.7851 70.9754 5.98339C69.8291 4.61649 69.7708 4.5133 70.0398 4.32651C70.8404 3.7705 71.2584 2.44698 70.882 1.66034C70.5002 0.862407 69.8188 0.6595 67.5761 0.67592C66.1523 0.686314 65.8336 0.722617 66.212 0.830926ZM91.9985 0.771421C92.666 0.934112 92.6821 1.01486 92.6821 4.19199C92.6821 7.37561 92.6318 7.64043 91.9985 7.7876C91.8314 7.82631 92.7673 7.86593 94.0783 7.87557C95.3893 7.88521 96.4976 7.83581 96.5412 7.76576C96.585 7.69572 96.6608 7.33976 96.7097 6.97491L96.7989 6.31134L96.5803 6.77831C96.3206 7.33312 96.0843 7.44113 95.1292 7.44113C93.8663 7.44113 93.8851 7.49582 93.9322 3.97748L93.9733 0.89103L94.4291 0.794471C94.6797 0.741446 94.167 0.69791 93.2898 0.697609C92.4125 0.697458 91.8314 0.730598 91.9985 0.771421ZM106.658 0.768856C107.367 0.891175 107.418 1.1212 107.402 4.11817C107.394 5.6559 107.34 7.08095 107.283 7.28507C107.222 7.50124 107.022 7.69933 106.804 7.75959C106.598 7.81653 107.113 7.86187 107.949 7.86051C108.784 7.85916 109.331 7.82631 109.164 7.7876C108.628 7.66317 108.481 7.28884 108.481 6.05661V4.88026H108.999C109.472 4.88026 109.598 4.98947 110.47 6.15693C111.551 7.60367 112.021 7.89908 113.213 7.8801C113.922 7.8688 113.969 7.85041 113.583 7.73593C113.058 7.58047 112.238 6.82065 111.182 5.51174L110.415 4.56166L110.792 4.15599C111.709 3.16795 111.896 2.43493 111.449 1.57734C111.083 0.876262 110.279 0.659193 108.136 0.682843C107.114 0.694141 106.449 0.732853 106.658 0.768856ZM125.443 0.766897C125.868 0.849146 126.011 1.17363 127.238 4.85013C127.823 6.60162 128.329 7.88492 128.423 7.85404C128.513 7.82421 129.047 6.65148 129.608 5.24782C130.56 2.86953 130.641 2.72401 130.792 3.10874C131.659 5.31139 132.852 7.89651 132.981 7.85358C133.07 7.82435 133.66 6.27955 134.293 4.42066C135.273 1.54405 135.501 1.01319 135.824 0.853967C136.159 0.689168 136.068 0.668986 135.065 0.685105C134.438 0.695198 134.079 0.732706 134.267 0.768709C134.497 0.812545 134.609 0.941795 134.61 1.16248C134.61 1.5317 133.414 5.64687 133.255 5.82055C133.199 5.88201 132.785 5.03467 132.334 3.93756C131.884 2.84045 131.382 1.64241 131.22 1.27531C130.927 0.612191 130.923 0.610082 130.74 0.974027C130.638 1.17543 130.155 2.40661 129.667 3.70995C129.179 5.01328 128.761 6.06037 128.737 6.03687C128.631 5.93172 127.317 1.38859 127.317 1.12723C127.317 0.966499 127.437 0.804114 127.583 0.766153C127.729 0.728342 127.234 0.698664 126.482 0.700321C125.73 0.701978 125.263 0.731949 125.443 0.766897ZM5.15354 1.56815C5.50081 1.76172 5.97263 2.19632 6.20216 2.5339C6.55444 3.0524 6.62812 3.33967 6.67567 4.38104C6.72458 5.45269 6.686 5.69522 6.38081 6.23375C5.84366 7.18143 5.18058 7.51645 3.84135 7.51645C2.26378 7.51645 2.29628 7.59042 2.29628 4.00309V1.07466L3.40933 1.14545C4.19394 1.19547 4.7086 1.3202 5.15354 1.56815ZM15.7697 1.47777C16.1552 1.80662 16.196 1.93466 16.196 2.8177C16.196 4.09558 15.9243 4.42834 14.8812 4.42834H14.1452V2.77131V1.11428H14.7443C15.1587 1.11428 15.475 1.22636 15.7697 1.47777ZM69.2704 1.35997C70.074 1.91809 70.2197 3.3573 69.5467 4.0894C69.3155 4.34112 69.0659 4.42834 68.5781 4.42834H67.921V2.77131V1.11428H68.4188C68.6927 1.11428 69.0759 1.22484 69.2704 1.35997ZM109.954 1.34069C110.641 1.81746 110.799 3.50116 110.217 4.13882C110.025 4.34851 109.75 4.42834 109.217 4.42834H108.481V2.77131V1.11428H109.054C109.37 1.11428 109.775 1.21611 109.954 1.34069ZM36.5524 3.52647C36.7609 4.1343 36.9315 4.68759 36.9315 4.75598C36.9315 4.82437 36.5255 4.88026 36.0292 4.88026H35.1267L35.4814 3.86345C35.9469 2.52953 36.0461 2.29499 36.1155 2.36383C36.1472 2.39531 36.344 2.91848 36.5524 3.52647ZM84.9149 3.66671C85.0929 4.20057 85.2386 4.69211 85.2386 4.75884C85.2386 4.82558 84.8284 4.88026 84.3271 4.88026C83.8258 4.88026 83.4157 4.85451 83.4157 4.82287C83.4157 4.73173 84.1877 2.72265 84.279 2.57608C84.412 2.36247 84.5705 2.63407 84.9149 3.66671ZM119.626 3.58581C119.846 4.19952 120.026 4.74182 120.026 4.79093C120.026 4.84004 119.616 4.88026 119.114 4.88026C118.613 4.88026 118.203 4.83492 118.203 4.77948C118.203 4.55352 119.038 2.47003 119.129 2.47003C119.183 2.47003 119.407 2.97211 119.626 3.58581ZM142.049 3.48685C142.245 4.04602 142.436 4.58847 142.473 4.69196C142.523 4.82935 142.29 4.88026 141.613 4.88026C141.103 4.88026 140.685 4.83492 140.685 4.77948C140.685 4.56618 141.518 2.47003 141.603 2.47003C141.652 2.47003 141.853 2.92767 142.049 3.48685ZM22.5869 6.92459C22.4557 7.05489 22.3483 7.21954 22.3483 7.29049C22.3483 7.36144 22.4557 7.52609 22.5869 7.6564C22.7183 7.78655 22.8844 7.89305 22.9559 7.89305C23.0275 7.89305 23.1935 7.78655 23.3249 7.6564C23.4561 7.52609 23.5635 7.36144 23.5635 7.29049C23.5635 7.21954 23.4561 7.05489 23.3249 6.92459C23.1935 6.79443 23.0275 6.68793 22.9559 6.68793C22.8844 6.68793 22.7183 6.79443 22.5869 6.92459Z" fill="#36606E"/>
</svg>
