<svg width="176" height="41" viewBox="0 0 176 41" fill="none" xmlns="http://www.w3.org/2000/svg">
<g clip-path="url(#clip0_1854_5781)">
<mask id="mask0_1854_5781" style="mask-type:luminance" maskUnits="userSpaceOnUse" x="0" y="0" width="176" height="41">
<path d="M0.000305176 0.751831H175.999V40.1683H0.000305176V0.751831Z" fill="white"/>
</mask>
<g mask="url(#mask0_1854_5781)">
<path d="M0.0621948 40.103L2.14444 34.7473H3.51029L5.59253 40.1018H4.09406L3.76933 39.1989H1.94737L1.55819 40.1018L0.0621948 40.103ZM2.20889 38.1026H3.38015L2.79514 36.489L2.20889 38.1026ZM15.8054 40.103V34.7473H19.6427V35.9729H17.2357V36.8758H19.1878V37.972H17.2357V38.8761H19.7728V40.1018L15.8054 40.103ZM21.7237 40.103V35.9741H20.2277V34.7473H24.65V35.9729H23.154V40.1018L21.7237 40.103ZM26.9913 40.103V34.7473H28.4873L29.7887 37.908L31.0244 34.7473H32.5204V40.1018H31.1545V37.4572L30.0489 40.103H29.4627L28.3584 37.4572V40.103H26.9913ZM33.1711 40.103L35.2521 34.7485H36.6179L38.7002 40.103H37.1385L36.8125 39.2001H34.9918L34.6671 40.103H33.1711ZM35.3165 38.1026H36.4878L35.9028 36.489L35.3165 38.1026ZM39.3496 40.103V34.7473H40.8456L42.6019 37.5853V34.7473H43.9677V40.1018H42.6663L40.7812 37.0692V40.1018L39.3496 40.103ZM44.6172 40.103L46.6994 34.7485H48.0653L50.1463 40.103H48.5846L48.2599 39.2001H46.4379L46.1144 40.103H44.6172ZM46.7639 38.1026H47.9351L47.3501 36.489L46.7639 38.1026ZM56.0001 40.103V34.7473H59.8374V35.9729H57.4304V36.8758H59.3813V37.972H57.4304V38.8761H59.9675V40.1018L56.0001 40.103ZM60.8785 40.103V34.7473H62.3745L63.6759 37.908L64.9761 34.7473H66.472V40.1018H65.0405V37.4572L63.9994 40.103H63.4144L62.2444 37.4572V40.103H60.8785ZM67.6421 40.103V34.7473H71.4793V35.9729H69.0736V36.8758H71.0245V37.972H69.0736V38.8761H71.6095V40.1018H67.6433L67.6421 40.103ZM72.5192 40.103V34.7473H74.0164L75.707 37.5853V34.7473H77.1373V40.1018H75.8372L73.9508 37.0692V40.1018H72.5205L72.5192 40.103ZM79.3485 40.103V35.9741H77.8537V34.7473H82.276V35.9729H80.78V40.1018L79.3485 40.103ZM6.95962 38.4894C7.08976 38.6187 7.2199 38.748 7.41449 38.8761C7.61032 39.0055 7.86936 39.0708 8.12964 39.0708C8.32547 39.0708 8.6502 39.0055 8.71589 38.8121C8.84603 38.6187 8.71589 38.3613 8.52006 38.2319C8.32064 38.1074 8.10018 38.0198 7.86936 37.9733C7.3488 37.8452 6.82824 37.6505 6.43906 37.3291C6.04864 37.0063 5.9185 36.4902 5.98419 35.9741C6.11433 35.1993 6.82948 34.8126 7.54463 34.6832C8.32547 34.5551 9.17076 34.6832 9.75577 35.2006C9.8616 35.291 9.94982 35.4 10.0161 35.5221L9.04062 36.2316C8.97617 36.1675 8.97617 36.1034 8.91048 36.0382C8.73522 35.8501 8.50941 35.7159 8.25978 35.6514C8.06519 35.5873 7.73922 35.5873 7.54463 35.7154C7.35004 35.8448 7.28435 36.0382 7.41449 36.2328C7.54463 36.4249 7.80491 36.4902 7.9995 36.5543C8.52006 36.7477 9.04062 36.8129 9.43104 37.1344C9.82146 37.4572 10.0817 37.8452 10.0817 38.36C10.0817 40.0377 7.86936 40.3604 6.6981 39.7803C6.30892 39.5869 6.04864 39.3935 5.85405 39.1348L6.95962 38.4894ZM11.6422 38.4894C11.7723 38.6187 11.9025 38.748 12.0971 38.8761C12.2929 39.0055 12.5532 39.0708 12.8134 39.0708C13.008 39.0708 13.334 39.0055 13.3985 38.8121C13.5286 38.6187 13.3985 38.3613 13.2026 38.2319C13.0036 38.1075 12.7836 38.0199 12.5532 37.9733C12.0326 37.8452 11.512 37.6505 11.1216 37.3291C10.7312 37.0063 10.6011 36.4902 10.6667 35.9741C10.7969 35.1993 11.512 34.8126 12.2284 34.6832C13.0093 34.5551 13.8533 34.6832 14.4396 35.2006C14.5455 35.2909 14.6337 35.3999 14.6999 35.5221L13.7232 36.2316C13.6587 36.1675 13.593 36.1034 13.593 36.0382C13.4182 35.8502 13.1928 35.716 12.9436 35.6514C12.7478 35.5873 12.423 35.5873 12.2272 35.7154C12.0326 35.8448 11.9669 36.1034 12.0971 36.2328C12.2272 36.4249 12.4875 36.4902 12.6833 36.5543C13.2039 36.7477 13.7244 36.8129 14.1136 37.1344C14.504 37.4572 14.7643 37.8452 14.7643 38.36C14.7643 40.0377 12.5532 40.3604 11.3819 39.7803C10.9915 39.5869 10.7312 39.3935 10.5366 39.1348L11.6422 38.4894ZM52.878 38.2319V37.1997H54.9602V39.9096C54.3958 40.1092 53.8029 40.2178 53.204 40.2311C52.2273 40.2964 51.382 40.103 50.8614 39.3282C50.5255 38.8561 50.3438 38.2928 50.3409 37.7146C50.3409 37.1357 50.4066 36.4902 50.6669 35.9741C50.8203 35.6308 51.0648 35.3354 51.3741 35.1195C51.6835 34.9036 52.0461 34.7754 52.4231 34.7485C53.204 34.6832 54.0492 34.8126 54.5698 35.458C54.7 35.5873 54.8301 35.7807 54.8945 35.9741L53.7233 36.5543C53.5931 36.3609 53.5287 36.1675 53.3985 36.1034C53.0738 35.8448 52.5533 35.9088 52.2285 36.1675C51.9026 36.4262 51.8381 36.877 51.7724 37.2638C51.708 38.6187 52.3574 38.9414 52.5533 39.0708C52.8135 39.2001 53.204 39.1348 53.5287 39.1348V38.3613H52.878" fill="#6AB1ED"/>
<path d="M175.932 26.6854H0.0635161V30.7502H175.932V26.6854ZM12.7478 1.1386H9.04194L0.000305176 22.6206H5.13898L6.89401 18.4276H14.8945L16.6508 22.6218H21.7895L12.7478 1.1386ZM8.2611 14.364L10.8614 7.65463L13.4642 14.364H8.2611ZM78.6334 7.84802C76.8127 6.29969 73.9509 6.36375 72.585 6.8158C71.7066 7.0746 70.9037 7.53928 70.2437 8.17074L70.0491 6.87985H65.6256V22.6218H70.4383V11.7823C70.8455 11.4454 71.2808 11.1438 71.7397 10.8806C72.2603 10.622 73.4303 10.2352 74.4714 10.8153C75.3167 11.2674 75.7071 12.4289 75.7071 13.7186V22.6218H80.5855V13.3959C80.65 9.97651 79.3498 8.49346 78.6334 7.84802ZM26.8612 6.87985H22.4389V22.6218H27.3173V11.717C27.7244 11.3797 28.1598 11.0777 28.6187 10.8141C29.138 10.5554 30.5039 10.1046 31.4793 10.8794C32.2602 11.5236 32.2602 13.0079 32.2602 13.3947V22.5553H37.0729V13.2013C37.0729 12.6211 37.0084 12.0397 36.9427 11.4596C37.3976 11.1368 37.8537 10.9434 38.3743 10.7501C39.4798 10.2327 40.7156 10.4914 41.1704 10.8141C42.0814 11.4596 42.1459 12.8145 42.1459 13.4599V22.6206H46.8297V13.2665C46.8297 11.5248 46.5694 9.39635 45.0077 7.97736C43.446 6.55836 41.0415 6.55836 40.521 6.49308C37.5277 6.55836 35.2522 8.10669 35.2522 8.10669C34.1466 7.01042 31.545 5.97697 29.3983 6.75175C28.5195 7.01037 27.7161 7.47506 27.0558 8.10669L26.8612 6.87985ZM63.5446 6.87985H58.7319V17.7822C58.3507 18.0859 57.9361 18.3458 57.4962 18.557C57.0401 18.8156 55.8044 19.1371 54.7645 18.7504C53.6589 18.2983 53.5288 16.5578 53.5288 15.783V6.87985H48.6504V16.1698C48.6504 17.9115 48.9751 19.7826 50.1464 21.1375C51.3821 22.4925 53.3329 23.0086 55.0892 22.8792C55.9266 22.8247 56.7448 22.6053 57.4962 22.2338C58.0167 21.9751 58.5373 21.6536 58.9265 21.2669L59.1223 22.6218H63.5446V6.87985ZM92.0973 1.1386V6.81703C91.3117 6.6101 90.5031 6.50127 89.6904 6.49308C86.5682 6.49308 84.8777 7.97736 84.1625 8.6228C82.6008 10.1711 81.82 12.2996 81.82 14.4281C81.82 19.5892 84.6174 21.6536 86.0489 22.2991C86.9587 22.7499 88.0642 22.9433 89.1053 22.8792C90.0163 22.8152 91.3822 22.4272 92.3576 21.5896L92.4878 22.5565H96.91V1.1386H92.0973ZM92.0973 17.8475C91.8371 18.2342 91.3822 18.4929 90.9261 18.6851C89.2355 19.3318 87.0888 18.621 86.6339 15.783C86.5038 14.7508 86.5038 13.7827 86.8942 12.8145C87.2189 11.9128 88.1956 10.4926 90.2754 10.5579C90.8616 10.5579 91.4466 10.686 92.0973 10.8806V17.8475ZM144.65 1.1386V22.6206H149.073L149.203 21.6536C150.178 22.4912 151.544 22.8792 152.455 22.9433C153.495 23.0086 154.601 22.7499 155.511 22.3631C156.943 21.7177 159.804 19.6532 159.739 14.4922C159.739 12.3637 158.894 10.1711 157.398 8.68685C156.683 7.97736 154.991 6.55836 151.869 6.55836C151.057 6.5701 150.249 6.67803 149.463 6.87985V1.13984L144.65 1.1386ZM149.463 10.8153C150.114 10.622 150.699 10.4926 151.284 10.4926C153.365 10.4926 154.34 11.8476 154.666 12.7504C155.057 13.7186 155.057 14.6868 154.926 15.719C154.47 18.557 152.325 19.3318 150.633 18.621C150.178 18.4276 149.723 18.1702 149.463 17.7834V10.8153ZM104.585 3.33238C104.585 4.68732 103.609 5.91292 101.788 5.91292C99.902 5.91292 98.991 4.68732 98.991 3.33238C98.991 1.97744 100.032 0.751831 101.788 0.751831C103.543 0.751831 104.585 1.97744 104.585 3.33238ZM104.195 6.87985H99.3827V22.6218H104.195V6.87985ZM112.195 17.59C112.195 13.6546 116.032 11.8476 119.609 12.2343C120.975 12.3637 122.276 13.0732 122.276 13.0732V12.5571C122.276 11.074 121.56 10.2352 119.739 10.0418C117.592 9.8484 116.422 10.3005 114.992 10.9447L113.951 7.71869C115.773 6.8158 117.788 6.42903 120.324 6.42903C125.723 6.42903 127.153 9.78312 127.153 12.9451V22.4925H122.731C122.731 22.4925 122.536 21.4602 122.536 21.1375C121.365 22.0404 120.13 22.8152 118.373 22.8152C114.861 22.9433 112.195 20.6855 112.195 17.5888V17.59ZM122.276 15.9124C122.276 15.9124 120.845 15.1376 119.739 15.0095C118.113 14.8149 116.422 15.5884 116.422 17.202C116.422 18.8156 118.309 19.3946 119.349 19.3946C120.584 19.3946 121.495 18.9437 122.276 18.0409V15.9124ZM161.041 17.59C161.041 13.6546 164.878 11.8476 168.455 12.2343C169.821 12.3637 171.121 13.0732 171.121 13.0732V12.5571C171.121 11.074 170.406 10.2352 168.585 10.0418C166.438 9.8484 165.268 10.3005 163.837 10.9447L162.797 7.71869C164.618 6.8158 166.634 6.42903 169.17 6.42903C174.569 6.42903 175.999 9.78312 175.999 12.9451V22.4925H171.577C171.577 22.4925 171.381 21.4602 171.381 21.1375C170.211 22.0404 168.975 22.8152 167.219 22.8152C163.772 22.9433 161.041 20.6855 161.041 17.5888V17.59ZM171.121 15.9124C171.121 15.9124 169.691 15.1376 168.585 15.0095C166.959 14.8149 165.268 15.5884 165.268 17.202C165.268 18.8156 167.153 19.3946 168.195 19.3946C169.43 19.3946 170.341 18.9437 171.121 18.0409V15.9124ZM140.878 17.3954C139.967 18.1702 139.576 18.6863 138.016 18.9437C135.284 19.3318 133.398 17.6541 133.463 14.6215C133.528 11.9769 135.479 10.5567 137.301 10.5567C139.512 10.5567 140.682 12.1062 140.682 12.1062L143.413 9.13768C143.413 9.13768 141.398 6.68647 137.365 6.49308H136.844C130.992 6.49308 128.779 10.7513 128.779 14.5574C128.779 19.5251 131.511 22.9433 137.431 22.9433C139.772 22.9433 141.917 21.9763 143.609 20.0412L140.878 17.3954Z" fill="#586196"/>
</g>
</g>
<defs>
<clipPath id="clip0_1854_5781">
<rect width="175.999" height="39.4164" fill="white" transform="translate(0.000427246 0.750488)"/>
</clipPath>
</defs>
</svg>
