<svg width="138" height="50" viewBox="0 0 138 50" fill="none" xmlns="http://www.w3.org/2000/svg">
<g clip-path="url(#clip0_1854_5736)">
<path d="M59.1448 49.7507H38.7838C38.6744 49.4285 38.7838 49.6433 38.6744 49.3211C45.4614 46.2073 51.0441 41.5903 54.8755 34.2887C56.9555 39.2281 58.3786 43.523 59.1448 49.7507Z" fill="#00A789"/>
<path d="M24.1146 49.7514C8.89866 49.7514 0.250732 39.6581 0.250732 27.3101C0.250732 15.9284 9.22707 5.29831 22.8011 6.04994C25.8662 6.26469 29.588 6.80156 32.6531 7.98268C32.4342 12.2777 30.7921 16.1431 27.9459 18.2906C25.4283 14.6399 22.5821 12.385 19.736 11.526C15.3572 10.2375 11.9638 12.0629 11.307 15.4989C10.5407 19.0423 13.3868 22.5856 17.7655 23.7667C27.9459 26.4512 36.2655 18.6128 36.2655 6.80156L47.2124 0.251709L58.159 6.80156C60.1296 29.2428 45.7893 49.7514 24.1146 49.7514Z" fill="#00A789"/>
<path d="M82.6786 32.3561C82.6786 32.0339 82.5693 31.6045 82.5693 31.1749V23.8735C82.5693 22.7997 82.2407 21.9408 81.6934 21.4039C81.1462 20.867 80.2703 20.4375 79.2852 20.2228C78.1904 20.008 76.8769 19.9006 75.3442 19.9006C72.9359 19.9006 71.1845 20.2228 69.871 20.867C68.6669 21.5113 68.01 22.585 67.9004 24.0883H72.3886C72.4982 23.6587 72.8266 23.3365 73.2645 23.1219C73.8117 22.9071 74.578 22.7997 75.5632 22.7997C76.5486 22.7997 77.3148 22.9071 77.7527 23.1219C78.1904 23.3365 78.4093 23.6587 78.4093 23.9809C78.4093 24.3031 78.3 24.5177 78.081 24.7324C77.8621 24.8398 77.5337 24.9472 77.0958 25.0546L71.0751 25.5914C69.871 25.6988 68.8858 26.1284 68.229 26.7725C67.5721 27.4169 67.2438 28.3833 67.2438 29.6718C67.2438 31.0675 67.791 32.1413 68.7762 32.7856C69.7614 33.4298 71.0751 33.8594 72.7172 33.8594C75.5632 33.8594 77.6431 33.1076 78.7379 31.6045V32.0339C78.7379 32.3561 78.7379 32.6783 78.8472 32.893C78.9568 33.1076 78.9568 33.3224 79.0662 33.4298H83.1165V33.3224C82.788 32.893 82.6786 32.6783 82.6786 32.3561ZM78.5189 27.6315C78.5189 28.8126 78.081 29.6718 77.0958 30.2086C76.22 30.7456 75.0159 31.0675 73.7024 31.0675C72.9359 31.0675 72.2793 30.9601 71.8414 30.7456C71.4035 30.5308 71.2941 30.1012 71.2941 29.5644C71.2941 29.1348 71.4035 28.7052 71.7318 28.4907C72.0603 28.2759 72.4982 28.0611 73.0455 28.0611L77.3148 27.5243C77.5337 27.5243 77.7527 27.4169 77.9714 27.4169C78.1904 27.3095 78.3 27.3095 78.4093 27.2021V27.6315H78.5189Z" fill="#00A789"/>
<path d="M96.8005 28.2759C96.6912 28.92 96.3626 29.457 95.8154 29.8864C95.2681 30.316 94.3923 30.5308 93.0788 30.5308C91.765 30.5308 90.6705 30.2086 90.0136 29.5644C89.3568 28.92 89.0284 28.0611 89.0284 26.7725C89.0284 24.3031 90.3419 23.0145 93.0788 23.0145C94.2829 23.0145 95.1585 23.2293 95.706 23.6587C96.2533 24.0883 96.5816 24.625 96.6912 25.2694H101.289C101.07 23.5513 100.304 22.2629 99.0995 21.2965C97.7857 20.3301 95.8154 19.9006 93.0788 19.9006C90.3419 19.9006 88.2622 20.5449 86.8391 21.726C85.416 22.9071 84.7592 24.625 84.7592 26.8799C84.7592 29.1348 85.416 30.7456 86.8391 31.9265C88.2622 33.1076 90.3419 33.752 93.0788 33.752C95.8154 33.752 97.8953 33.3224 99.2088 32.3561C100.523 31.3897 101.289 30.1012 101.398 28.3833H96.8005V28.2759Z" fill="#00A789"/>
<path d="M118.146 21.8324C116.832 20.6513 115.081 20.1144 112.782 20.1144C110.702 20.1144 108.95 20.7587 107.746 22.0472H107.637V16.0342H103.587V33.3215H107.637V31.7108H107.746C108.95 33.1067 110.592 33.7511 112.782 33.7511C115.081 33.7511 116.832 33.2141 118.146 32.033C119.459 30.8518 120.007 29.1339 120.007 26.9864C120.007 24.7315 119.35 23.0136 118.146 21.8324ZM111.687 30.5299C110.373 30.5299 109.279 30.2077 108.622 29.5633C107.965 28.9191 107.527 28.0602 107.527 26.879C107.527 25.8053 107.856 24.8389 108.622 24.1946C109.279 23.5504 110.373 23.2282 111.687 23.2282C113.11 23.2282 114.095 23.5504 114.752 24.1946C115.409 24.8389 115.737 25.6979 115.737 26.879C115.737 29.3487 114.424 30.5299 111.687 30.5299Z" fill="#00A789"/>
<path d="M137.304 32.3561C137.304 32.0339 137.194 31.6045 137.194 31.1749V23.8735C137.194 22.7997 136.866 21.9408 136.319 21.4039C135.771 20.867 134.895 20.4375 133.91 20.2228C132.816 20.008 131.502 19.9006 129.97 19.9006C127.561 19.9006 125.81 20.2228 124.496 20.867C123.292 21.5113 122.635 22.585 122.526 24.0883H127.014C127.123 23.6587 127.452 23.3365 127.89 23.1219C128.437 22.9071 129.203 22.7997 130.188 22.7997C131.174 22.7997 131.94 22.9071 132.378 23.1219C132.816 23.3365 133.034 23.6587 133.034 23.9809C133.034 24.3031 132.925 24.5177 132.706 24.7324C132.487 24.8398 132.159 24.9472 131.721 25.0546L125.7 25.5914C124.496 25.6988 123.511 26.1284 122.854 26.7725C122.197 27.4169 121.869 28.3833 121.869 29.6718C121.869 31.0675 122.416 32.1413 123.401 32.7856C124.387 33.4298 125.7 33.8594 127.342 33.8594C130.188 33.8594 132.268 33.1076 133.363 31.6045V32.0339C133.363 32.3561 133.363 32.6783 133.472 32.893C133.582 33.1076 133.582 33.3224 133.691 33.4298H137.742V33.3224C137.413 32.893 137.304 32.6783 137.304 32.3561ZM133.144 27.6315C133.144 28.8126 132.706 29.6718 131.721 30.2086C130.845 30.7456 129.641 31.0675 128.328 31.0675C127.561 31.0675 126.904 30.9601 126.466 30.7456C126.029 30.5308 125.919 30.1012 125.919 29.5644C125.919 29.1348 126.029 28.7052 126.357 28.4907C126.685 28.2759 127.123 28.0611 127.671 28.0611L131.94 27.5243C132.159 27.5243 132.378 27.4169 132.597 27.4169C132.816 27.3095 132.925 27.3095 133.034 27.2021V27.6315H133.144Z" fill="#00A789"/>
</g>
<defs>
<clipPath id="clip0_1854_5736">
<rect width="137.499" height="49.4997" fill="white" transform="translate(0.25061 0.250854)"/>
</clipPath>
</defs>
</svg>
