<svg width="81" height="81" viewBox="0 0 81 81" fill="none" xmlns="http://www.w3.org/2000/svg">
<path fill-rule="evenodd" clip-rule="evenodd" d="M39.7028 0.0517801C39.008 0.117715 39.022 0.130859 40.217 0.532222C43.2137 1.53912 47.1003 4.6541 49.2983 7.81057L50.1574 9.04465L49.6432 9.70092C49.3604 10.0618 49.0056 10.357 48.8546 10.357C48.7036 10.357 47.9467 10.0727 47.1725 9.72515C46.3983 9.3774 44.7006 8.80987 43.3996 8.46376C41.2335 7.88719 40.7481 7.83295 37.6404 7.81898C34.7872 7.80604 33.9354 7.87794 32.2926 8.26985C27.805 9.34063 24.4766 11.7574 24.4766 13.9452C24.4766 17.3625 27.5618 21.1971 33.126 24.6953C35.4293 26.1432 36.7294 26.652 37.7647 26.5103C38.2618 26.4423 40.149 25.7823 41.9586 25.0441C48.9276 22.2003 59.3143 18.48 59.7833 18.6597C59.9637 18.7287 59.6247 19.9878 58.6096 23.0217C57.8245 25.3672 57.0662 27.4005 56.9242 27.54C56.7825 27.6795 55.1854 28.2963 53.3753 28.9107C43.603 32.2282 34.5317 36.2636 29.9134 39.3475C24.4093 43.0229 20.9688 47.9951 20.984 52.2515C21.0122 60.1403 26.8446 66.5973 37.0234 70.0088L39.1831 70.7327L39.3472 69.9692C39.5432 69.0586 39.391 40.572 39.1847 39.4999L39.0415 38.7566L46.1056 38.7923C52.6227 38.8254 53.2918 38.8622 54.7471 39.2664C57.5534 40.0461 58.9393 40.9976 60.2792 43.0639C62.8714 47.0626 61.7772 52.2735 57.4498 56.5377C56.4164 57.5559 55.9818 58.1208 56.1062 58.2837C56.2072 58.4162 57.7737 60.3733 59.5872 62.6327C63.9955 68.1253 66.5843 70.9517 67.2062 70.9517C67.5224 70.9517 71.1605 67.1011 72.6419 65.1991C76.9806 59.6279 79.8135 52.7613 80.75 45.5475C81.1523 42.4483 81.0553 36.5513 80.5579 33.8759C78.7427 24.1132 73.9914 15.7031 66.9512 9.79109C61.9691 5.60738 56.8866 2.94881 50.801 1.34336C47.2486 0.406098 42.1826 -0.183409 39.7028 0.0517801ZM24.7847 3.23207C19.6767 5.41143 15.5634 8.19653 11.7903 12.03C9.25646 14.6046 8.27328 15.8078 6.51714 18.4847C2.20268 25.0605 0 32.451 0 40.3505C0 49.8438 3.09741 58.7013 8.96582 65.9897C11.6652 69.3421 16.0116 73.0747 19.9648 75.4355C25.6934 78.8563 33.6645 81.0753 39.9464 80.998L41.4456 80.9798L39.8001 80.6867C32.4179 79.3716 26.5939 76.5839 22.6118 72.4587C19.2694 68.9962 17.5096 65.6941 16.6457 61.2631C15.232 54.0127 16.5069 47.4886 20.5325 41.3732C21.7483 39.5262 22.7743 38.324 25.2359 35.8608C26.9678 34.128 28.3846 32.6825 28.3846 32.6486C28.3846 32.6147 27.7426 32.0692 26.9582 31.4361C23.9566 29.0144 21.5647 26.2946 20.3892 23.9672C17.3494 17.9478 20.0831 8.21521 26.2415 3.13307C26.766 2.70028 27.1157 2.34801 27.0186 2.35027C26.9213 2.35232 25.9161 2.74916 24.7847 3.23207ZM46.742 42.3274L46.2792 42.4288V49.4864V56.5437L47.4428 56.6889C49.7773 56.9802 51.2718 56.9089 52.0166 56.4706C53.8011 55.4205 54.6977 53.3531 54.7578 50.1508C54.8036 47.7082 54.4443 46.2296 53.4829 44.9042C52.7328 43.8702 51.4302 42.8924 50.4159 42.6022C49.522 42.3464 47.3848 42.1867 46.742 42.3274ZM46.358 65.3544C46.5011 70.2512 46.6587 71.5069 47.1976 72.0448C47.603 72.4497 51.7107 72.6728 57.6888 72.6148L59.7397 72.5949L58.4831 71.3111C57.1089 69.9072 54.9838 67.1519 52.146 63.0949L50.3141 60.476H48.2647H46.2152L46.358 65.3544Z" fill="#36606E"/>
</svg>
