<svg width="51" height="51" viewBox="0 0 51 51" fill="none" xmlns="http://www.w3.org/2000/svg">
<g clip-path="url(#clip0_2925_13236)">
<path d="M30.1619 24.3438C27.0448 24.3438 25.8526 26.3076 25.4934 27.1284C25.1346 26.3076 23.951 24.3438 20.834 24.3438C17.6639 24.3438 14.8753 26.5157 14.8753 30.4819C14.8753 32.0868 15.2012 33.4617 16.1056 34.9961C17.9487 38.1231 25.4929 42.2241 25.4929 42.2241C25.4929 42.2241 33.0395 38.1476 34.8971 34.9961C35.8015 33.4617 36.1251 32.0868 36.1251 30.4819C36.1251 26.5157 33.332 24.3438 30.1619 24.3438Z" fill="#EF7858"/>
<path d="M25.5 9.87308C28.222 9.87308 30.4366 7.65857 30.4366 4.93654C30.4366 2.21452 28.222 0 25.5 0C22.778 0 20.5635 2.21452 20.5635 4.93654C20.5635 7.65857 22.778 9.87308 25.5 9.87308ZM25.5 1.99219C27.1236 1.99219 28.4444 3.31301 28.4444 4.93654C28.4444 6.56007 27.1236 7.88089 25.5 7.88089C23.8765 7.88089 22.5557 6.56007 22.5557 4.93654C22.5557 3.31301 23.8765 1.99219 25.5 1.99219Z" fill="#43889C"/>
<path d="M19.0099 19.7055H31.9901C32.5402 19.7055 32.9862 19.2595 32.9862 18.7094C32.9862 14.8053 29.8099 11.6289 25.9057 11.6289H25.0944C21.1902 11.6289 18.0139 14.8053 18.0139 18.7094C18.0139 19.2596 18.4598 19.7055 19.0099 19.7055ZM25.0944 13.6211H25.9057C28.3706 13.6211 30.4318 15.3829 30.8962 17.7133H20.104C20.5682 15.3828 22.6295 13.6211 25.0944 13.6211Z" fill="#43889C"/>
<path d="M38.5772 36.2295C38.5772 38.9515 40.7918 41.1661 43.5139 41.1661C46.236 41.1661 48.4504 38.9515 48.4504 36.2295C48.4504 33.5075 46.236 31.293 43.5139 31.293C40.7918 31.293 38.5772 33.5075 38.5772 36.2295ZM46.4581 36.2295C46.4581 37.853 45.1373 39.1739 43.5138 39.1739C41.8902 39.1739 40.5693 37.853 40.5693 36.2295C40.5693 34.606 41.8902 33.2852 43.5138 33.2852C45.1373 33.2852 46.4581 34.606 46.4581 36.2295Z" fill="#43889C"/>
<path d="M43.9195 42.9219H43.1082C39.2039 42.9219 36.0275 46.0982 36.0275 50.0024C36.0275 50.5526 36.4736 50.9985 37.0236 50.9985H50.0039C50.554 50.9985 51 50.5526 51 50.0024C51 46.0981 47.8237 42.9219 43.9195 42.9219ZM38.1176 49.0063C38.582 46.6759 40.6432 44.9141 43.1083 44.9141H43.9196C46.3845 44.9141 48.4456 46.6759 48.9101 49.0063H38.1176Z" fill="#43889C"/>
<path d="M7.48613 41.1661C10.2082 41.1661 12.4228 38.9515 12.4228 36.2295C12.4228 33.5075 10.2083 31.293 7.48613 31.293C4.76401 31.293 2.54959 33.5075 2.54959 36.2295C2.54969 38.9516 4.76411 41.1661 7.48613 41.1661ZM7.48613 33.2853C9.10966 33.2853 10.4306 34.6061 10.4306 36.2296C10.4306 37.8531 9.10966 39.174 7.48613 39.174C5.8626 39.174 4.54178 37.8531 4.54178 36.2296C4.54178 34.6061 5.8626 33.2853 7.48613 33.2853Z" fill="#43889C"/>
<path d="M7.89185 42.9219H7.08053C3.17634 42.9219 0 46.0981 0 50.0024C0 50.5526 0.446051 50.9985 0.996094 50.9985H13.9764C14.5264 50.9985 14.9725 50.5526 14.9725 50.0024C14.9725 46.0981 11.7961 42.9219 7.89185 42.9219ZM2.09 49.0063C2.55438 46.6759 4.6155 44.9141 7.08053 44.9141H7.89185C10.3568 44.9141 12.418 46.6759 12.8825 49.0063H2.09Z" fill="#43889C"/>
<path d="M43.008 28.2541C43.0943 28.7363 43.5141 29.075 43.9874 29.075C44.0456 29.075 44.1047 29.0698 44.1639 29.0592C44.7055 28.9623 45.066 28.4448 44.9691 27.9034C44.0629 22.8379 41.2533 18.382 37.0578 15.3562C36.6115 15.0344 35.9891 15.1353 35.6672 15.5814C35.3455 16.0275 35.4462 16.6502 35.8925 16.9719C39.6665 19.6937 42.1934 23.7005 43.008 28.2541Z" fill="#43889C"/>
<path d="M33.134 47.2922C30.7406 48.4314 28.1721 49.0089 25.5 49.0089C22.9922 49.0089 20.5685 48.4978 18.2959 47.4897C17.7926 47.2666 17.2045 47.4936 16.9814 47.9964C16.7584 48.4993 16.9852 49.0878 17.4881 49.3108C20.0166 50.4324 22.7123 51.0011 25.5 51.0011C28.4706 51.0011 31.3272 50.3585 33.9901 49.0911C34.4868 48.8547 34.6978 48.2603 34.4614 47.7636C34.2251 47.2667 33.6308 47.0558 33.134 47.2922Z" fill="#43889C"/>
<path d="M6.81977 29.1928C6.87675 29.2025 6.93343 29.2073 6.98931 29.2073C7.46544 29.2073 7.88669 28.8647 7.96996 28.3794C8.68516 24.2084 10.8849 20.416 14.1642 17.7008C14.5879 17.35 14.647 16.7221 14.2961 16.2983C13.9453 15.8748 13.3176 15.8154 12.8936 16.1664C9.24785 19.1849 6.80204 23.4027 6.00636 28.0427C5.91343 28.5849 6.2775 29.0998 6.81977 29.1928Z" fill="#43889C"/>
</g>
<defs>
<clipPath id="clip0_2925_13236">
<rect width="51" height="51" fill="white"/>
</clipPath>
</defs>
</svg>
