<svg width="60" height="60" viewBox="0 0 60 60" fill="none" xmlns="http://www.w3.org/2000/svg">
<path d="M55.428 28.0571H53.2251L54.0245 21.0209H55.2112C55.7821 21.0209 56.2449 20.5581 56.2449 19.9873V16.2076C56.2449 13.6675 54.8871 11.3459 52.7564 10.069C53.1056 9.45349 53.3061 8.74296 53.3061 7.98612C53.3061 5.65027 51.4057 3.75 49.07 3.75C46.7342 3.75 44.8339 5.65027 44.8339 7.98612C44.8339 8.74296 45.0343 9.45349 45.3836 10.069C43.253 11.3459 41.8951 13.6676 41.8951 16.2077V19.9874C41.8951 20.5582 42.3579 21.021 42.9287 21.021H44.1158L44.9175 28.0572H42.7119C42.141 28.0572 41.6782 28.52 41.6782 29.0908V33.9963H29.9987C29.4278 33.9963 28.965 34.459 28.965 35.0299V39.9353H17.2854C16.7146 39.9353 16.2518 40.3981 16.2518 40.969V45.8745H4.57223C4.00134 45.8745 3.53857 46.3373 3.53857 46.9081V55.2146C3.53857 55.7855 4.00134 56.2482 4.57223 56.2482H42.7119H55.428C55.9989 56.2482 56.4616 55.7855 56.4616 55.2146V29.0907C56.4616 28.5199 55.9989 28.0571 55.428 28.0571ZM5.60588 47.9416H16.2518V54.1807H5.60588V47.9416ZM18.3191 42.0025H28.965V54.1808H18.3191V42.0025ZM41.6782 54.1808H31.0323V36.0635H41.6782V54.1808ZM49.0699 5.8172C50.2658 5.8172 51.2387 6.79018 51.2387 7.98602C51.2387 9.18185 50.2657 10.1548 49.0699 10.1548C47.8741 10.1548 46.9011 9.18185 46.9011 7.98602C46.9011 6.79018 47.8741 5.8172 49.0699 5.8172ZM43.9623 18.9536V16.2076C43.9623 14.2351 45.116 12.4479 46.8798 11.6108C47.5193 11.9987 48.2689 12.2222 49.0699 12.2222C49.8709 12.2222 50.6206 11.9987 51.26 11.6108C53.0238 12.448 54.1775 14.2351 54.1775 16.2076V18.9536H53.1015C52.5758 18.9536 52.1338 19.3481 52.0745 19.8706L51.1444 28.0571H46.998L46.0653 19.8702C46.0057 19.348 45.5638 18.9536 45.0382 18.9536H43.9623ZM54.3943 54.1808H43.7455V30.1244H54.3943V54.1808Z" fill="#43889C"/>
<path fill-rule="evenodd" clip-rule="evenodd" d="M7.64319 38.3616L30.7373 25.0272L32.4601 28.007L36.398 18.215L25.9467 16.7266L27.6666 19.7093L4.57251 33.0436L7.64319 38.3616Z" fill="#EF7858"/>
</svg>
