<svg width="61" height="61" viewBox="0 0 61 61" fill="none" xmlns="http://www.w3.org/2000/svg">
<path d="M45.5174 54.6138V23.6211H15.496V54.6138H45.5174Z" fill="#F7D2C8"/>
<path d="M44.0294 18.2206V12.3382C44.0294 11.8926 43.7776 11.4853 43.379 11.286L41.0261 10.1095C40.4449 9.81894 39.7382 10.0545 39.4476 10.6356C39.157 11.2168 39.3926 11.9235 39.9737 12.214L41.6764 13.0653V18.2206H38.147V16.4559C38.147 13.4846 36.4426 10.9056 33.961 9.64024C34.7333 8.80165 35.2059 7.68306 35.2059 6.45588C35.2059 3.86106 33.0948 1.75 30.5 1.75C27.9052 1.75 25.7941 3.86106 25.7941 6.45588C25.7941 7.68306 26.2667 8.80165 27.0389 9.64024C24.5574 10.9056 22.8529 13.4846 22.8529 16.4559V18.2206C-6.35916 18.2206 95.6055 18.2206 44.0294 18.2206ZM28.147 6.45588C28.147 5.15847 29.2026 4.10294 30.5 4.10294C31.7974 4.10294 32.8529 5.15847 32.8529 6.45588C32.8529 7.75329 31.7974 8.80882 30.5 8.80882C29.2026 8.80882 28.147 7.75329 28.147 6.45588ZM25.2059 16.4559C25.2059 13.5367 27.5808 11.1618 30.5 11.1618C33.4192 11.1618 35.7941 13.5367 35.7941 16.4559V18.2206L30.5 19.8946L25.2059 18.2206V16.4559Z" fill="#EF7858"/>
<path d="M47.5592 52.1914H13.4415C12.7918 52.1914 12.2651 52.7181 12.2651 53.3679V58.0738C12.2651 58.7235 12.7918 59.2502 13.4415 59.2502H47.5592C48.209 59.2502 48.7357 58.7235 48.7357 58.0738V53.3679C48.7357 52.7181 48.209 52.1914 47.5592 52.1914ZM46.3827 56.8973H14.618V54.5443H46.3827V56.8973Z" fill="#EF7858"/>
<path d="M47.5592 18.207H13.4415C12.7918 18.207 12.2651 18.7337 12.2651 19.3835V24.0894C12.2651 24.7391 12.7918 25.2659 13.4415 25.2659H47.5592C48.209 25.2659 48.7357 24.7391 48.7357 24.0894V19.3835C48.7357 18.7337 48.209 18.207 47.5592 18.207ZM46.3827 22.9129H14.618V20.56H46.3827V22.9129Z" fill="#EF7858"/>
</svg>
