<svg width="100" height="24" viewBox="0 0 100 24" fill="none" xmlns="http://www.w3.org/2000/svg">
<path d="M5.92755 13.9417V12.8821H1.93114L5.74847 6.84287V5.78328H0.268236V6.82708H3.86151L0 12.8173V13.9417H5.92755ZM13.9266 9.73411C13.9266 7.19607 12.6544 5.57385 10.3341 5.57385C7.46022 5.57385 6.59194 7.9997 6.59194 9.97511C6.59194 12.5123 7.86412 14.137 10.1844 14.137C13.0583 14.137 13.9266 11.7095 13.9266 9.73411ZM12.0854 9.8463C12.0854 11.8857 11.6062 13.0259 10.2891 13.0259C8.91226 13.0259 8.43315 11.7411 8.43315 9.8463C8.43315 7.8069 8.91226 6.68248 10.2294 6.68248C11.6062 6.68248 12.0854 7.9515 12.0854 9.8463ZM22.2403 9.73411C22.2403 7.19607 20.9674 5.57385 18.6478 5.57385C15.7732 5.57385 14.9049 7.9997 14.9049 9.97511C14.9049 12.5123 16.1771 14.137 18.4974 14.137C21.3721 14.137 22.2403 11.7095 22.2403 9.73411ZM20.3991 9.8463C20.3991 11.8857 19.92 13.0259 18.6029 13.0259C17.2252 13.0259 16.7461 11.7411 16.7461 9.8463C16.7461 7.8069 17.2252 6.68248 18.5424 6.68248C19.92 6.68248 20.3991 7.9515 20.3991 9.8463ZM34.49 13.9417V8.9471C34.49 8.57728 34.49 7.98308 34.3706 7.4055C33.9962 5.70267 32.5442 5.57385 31.9154 5.57385C30.2386 5.57385 29.3711 6.63428 29.3711 6.63428C29.3711 6.63428 28.9214 5.59048 27.2748 5.59048C25.7476 5.59048 25.0746 6.58608 25.0746 6.58608V5.76666H23.3536V13.9417H25.1196V7.13208C25.1196 7.13208 25.5979 6.82708 26.3771 6.82708C27.3353 6.82708 27.8291 7.27668 27.964 8.12768C28.0237 8.51329 28.0237 8.8989 28.0237 9.38091V13.9417H29.8044V9.2521C29.8044 8.8989 29.8199 8.20829 29.73 7.67808C29.6997 7.51487 29.6599 7.35388 29.6106 7.19607C29.6106 7.19607 30.1789 6.84287 31.0177 6.84287C31.7805 6.84287 32.5139 7.06726 32.6643 8.11189C32.724 8.4975 32.724 8.8989 32.724 9.38091V13.9417H34.49ZM59.7034 5.84727C59.4786 5.75087 59.1949 5.60627 58.6855 5.60627C57.473 5.60627 56.8443 6.79467 56.8443 6.79467V5.76666H55.138V13.9417H56.904V7.30909C56.904 7.30909 57.3684 7.00327 58.0871 7.00327C58.746 7.00327 59.1197 7.27668 59.284 7.4055L59.7034 5.84727ZM66.2241 13.9417V9.12328C66.2241 8.67451 66.2396 7.5983 66.0892 7.11629C65.9395 6.61766 65.4907 5.59048 63.4696 5.59048C61.8834 5.59048 60.9849 6.00766 60.9849 6.00766L61.3594 7.13208C61.3594 7.13208 62.0331 6.69827 63.0207 6.69827C63.7091 6.69827 64.2038 6.89108 64.3976 7.51769C64.4875 7.8069 64.503 8.27229 64.503 8.72272V9.3003C64.503 9.3003 63.9487 9.2521 63.4254 9.2521C62.5122 9.2521 61.7036 9.31609 61.1043 9.78231C60.5655 10.1995 60.267 10.8261 60.267 11.6937C60.267 13.1389 61.1795 14.0564 62.6013 14.0564C63.934 14.0564 64.5472 13.1871 64.5472 13.1871V13.9417H66.2241ZM64.503 12.7209C64.503 12.7209 64.1138 12.9303 63.4401 12.9303C62.7509 12.9303 62.0176 12.6411 62.0176 11.5973C62.0176 11.1951 62.1377 10.7297 62.5122 10.4563C62.8106 10.2485 63.2153 10.1513 63.7247 10.1513C64.3526 10.1513 64.503 10.1679 64.503 10.1679V12.7209ZM74.8968 9.67012C74.8968 7.11629 73.6843 5.63868 71.7531 5.63868C70.2112 5.63868 69.6127 6.6027 69.6127 6.6027V5.76666H67.8916V17.1953H69.6576V13.7489C69.6576 13.7489 70.136 14.0897 71.274 14.0897C73.3246 14.0897 74.8968 12.3685 74.8968 9.67012ZM73.0555 9.81389C73.0555 11.8059 72.3671 13.0425 70.6158 13.0425C70.0166 13.0425 69.6576 12.8979 69.6576 12.8979V7.16366C69.6576 7.16366 70.1212 6.85866 70.8996 6.85866C72.3074 6.85866 73.0555 8.03128 73.0555 9.81389ZM82.7012 13.9417V9.02771C82.7012 8.65789 82.7012 7.9997 82.581 7.42129C82.4019 6.58608 81.7732 5.59048 80.201 5.59048C78.6141 5.59048 77.9559 6.58608 77.9559 6.58608V2.11667H76.1899V13.9417H77.9559V7.13208C77.9559 7.13208 78.4947 6.82708 79.2436 6.82708C80.1111 6.82708 80.7104 7.19607 80.8747 8.11189C80.9352 8.46509 80.9352 8.93131 80.9352 9.4449V13.9417H82.7012ZM86.3503 3.64498C86.3503 3.0192 85.9162 2.63359 85.3029 2.63359C84.644 2.63359 84.2246 3.03499 84.2246 3.7098C84.2246 4.33642 84.6587 4.72119 85.2727 4.72119C85.9316 4.72119 86.3503 4.3198 86.3503 3.64498ZM86.1859 13.9417V5.76666H84.4191V13.9417H86.1859ZM93.4446 6.00766C93.4446 6.00766 92.6662 5.60627 91.4537 5.60627C89.6575 5.60627 88.6094 6.42568 88.0411 7.4055C87.607 8.1443 87.4271 9.02771 87.4271 10.0067C87.4271 12.4317 88.7148 14.073 91.1243 14.073C92.7112 14.073 93.4298 13.5885 93.4298 13.5885L93.0701 12.5123C92.9213 12.6087 92.3964 12.8979 91.6034 12.8979C89.8668 12.8979 89.2381 11.4361 89.2381 9.8463C89.2381 7.67808 90.0319 6.74647 91.6181 6.74647C92.5616 6.74647 93.0856 7.14787 93.0856 7.14787L93.4446 6.00766ZM99.6923 11.5491C99.6923 10.5369 99.2132 9.89533 98.3155 9.3967L97.1774 8.7543C96.534 8.38448 96.2192 8.20829 96.2192 7.62988C96.2192 6.89107 96.9076 6.6991 97.5069 6.6991C98.4798 6.6991 99.1535 7.14787 99.1535 7.14787L99.5125 6.02429C99.5125 6.02429 98.7488 5.59048 97.327 5.59048C95.7401 5.59048 94.6625 6.31349 94.6625 7.8551C94.6625 8.96289 95.1866 9.52551 96.1448 10.1031L97.3123 10.8095C97.8356 11.1311 98.0759 11.3081 98.0759 11.8541C98.0759 12.5281 97.5813 12.9303 96.6688 12.9303C95.4114 12.9303 94.7524 12.4799 94.7524 12.4799L94.3935 13.5885C94.3935 13.5885 95.1718 14.0564 96.8332 14.0564C98.1651 14.0564 99.6923 13.5403 99.6923 11.5491Z" fill="#676767"/>
<path fill-rule="evenodd" clip-rule="evenodd" d="M44.766 0C49.4291 0 53.2107 4.05803 53.2107 9.06097C53.2107 11.7336 52.1316 14.1362 50.4144 15.795C50.4865 15.4709 50.5191 15.1451 50.5191 14.8252C50.5191 11.9456 48.0352 11.9456 46.9033 11.9456C45.7722 11.9456 45.5063 11.9929 44.6636 11.9929C43.9535 11.9929 43.2659 11.9215 43.2659 10.9699C43.2659 10.3516 43.7318 9.92278 43.7318 9.92278C43.7318 9.92278 44.131 9.99425 44.7086 9.99425C47.6801 9.99425 49.0228 8.27563 49.1663 6.04425C49.4934 0.944907 40.0517 0.84435 40.161 5.97278C40.2269 9.08923 42.7557 9.63772 42.7557 9.63772C42.7557 9.63772 41.0479 10.3749 41.0479 12.16C41.0377 12.495 41.1182 12.8259 41.2795 13.113C41.4409 13.4001 41.6762 13.6311 41.9572 13.778C41.9572 13.778 39.7827 14.231 39.5586 16.1939C38.5489 15.3467 37.7325 14.2641 37.1714 13.0282C36.6103 11.7922 36.3193 10.4355 36.3204 9.06097C36.3204 4.05803 40.1021 0 44.766 0Z" fill="#676767"/>
<path d="M48.0305 6.08748C48.0305 6.87947 47.8832 7.75208 47.0049 8.2075C46.6493 8.36823 46.2667 8.44912 45.8808 8.44518C44.2698 8.44518 43.7326 7.31578 43.7326 6.10742C43.7326 5.33455 43.8791 4.48188 44.7334 4.02647C45.0264 3.88768 45.4172 3.76884 45.8575 3.76884C47.4685 3.76884 48.0305 4.8783 48.0305 6.08748ZM0.649662 22.7169L0.679121 22.4966V21.7827L0.696952 20.8486V19.6611L0.679121 18.8907V18.4494L0.66129 18.1901L0.649662 18.0131L0.932627 18.0322L1.19699 18.0131L1.1621 18.1959V19.6611L1.1497 20.2104L1.1621 20.8545V22.5216L1.19699 22.7169H0.649662ZM7.41913 19.7625C7.60752 19.6785 7.80598 19.6361 8.01375 19.6361C8.43316 19.6361 8.76807 19.7807 9.01692 20.0683C9.26577 20.3575 9.39059 20.7306 9.39059 21.1902C9.39059 21.6523 9.26112 22.0346 9.00296 22.3354C8.74326 22.6362 8.39595 22.7867 7.96026 22.7867C7.67807 22.7867 7.42688 22.7152 7.20749 22.5723C6.97373 22.4357 6.79089 22.2171 6.68962 21.9531C6.60312 21.7381 6.56081 21.5057 6.56558 21.2717C6.56558 20.5096 6.8501 20.0068 7.41913 19.7625ZM7.09585 21.2584C7.0898 21.4642 7.11762 21.6695 7.17803 21.865C7.29587 22.3238 7.55247 22.5531 7.94863 22.5531C8.38044 22.5531 8.66263 22.2706 8.79597 21.7071C8.83889 21.5299 8.86077 21.3476 8.86109 21.1644C8.86109 20.8362 8.79985 20.5478 8.67814 20.2993C8.53782 20.0126 8.30989 19.8697 7.99592 19.8697C7.59201 19.8697 7.323 20.114 7.18966 20.6027C7.12764 20.8046 7.09585 21.0223 7.09585 21.2584ZM15.2895 19.7625C15.4771 19.6785 15.6755 19.6361 15.8833 19.6361C16.3035 19.6361 16.6376 19.7807 16.8865 20.0683C17.1361 20.3575 17.2601 20.7306 17.2601 21.1902C17.2601 21.6523 17.1307 22.0346 16.8725 22.3354C16.6128 22.6362 16.2663 22.7867 15.8306 22.7867C15.5484 22.7867 15.2972 22.7152 15.077 22.5723C14.8432 22.4357 14.6604 22.2171 14.5592 21.9531C14.4726 21.7381 14.4303 21.5057 14.4351 21.2717C14.4351 20.5096 14.7204 20.0068 15.2895 19.7625ZM14.9654 21.2584C14.9654 21.3722 14.9716 21.4753 14.9832 21.5683C14.9949 21.6606 15.0166 21.7595 15.0476 21.865C15.1654 22.3238 15.4228 22.5531 15.8189 22.5531C16.25 22.5531 16.5322 22.2706 16.6663 21.7071C16.7088 21.5298 16.7304 21.3475 16.7306 21.1644C16.7306 20.8362 16.6702 20.5478 16.5485 20.2993C16.4074 20.0126 16.1794 19.8697 15.8662 19.8697C15.4616 19.8697 15.1925 20.114 15.06 20.6027C14.9972 20.8046 14.9654 21.0223 14.9654 21.2584ZM22.7411 18.033L23.0233 18.0131L23.0001 18.1652V18.3796L22.9768 19.0677V20.9999L23.1063 20.9932C23.1489 20.9849 23.2016 20.9475 23.2644 20.8802L23.4234 20.7223C23.4986 20.655 23.6063 20.5328 23.7474 20.3558L24.0296 20.0276L24.1707 19.8572L24.2715 19.6993L24.5591 19.7184L24.818 19.6993L24.6537 19.863L24.1358 20.3492L23.7652 20.709L23.4939 20.9683L23.7854 21.3124L24.2242 21.8526L24.6715 22.3952L24.8421 22.5723L25.0126 22.7169L24.5653 22.7044L24.2467 22.7169L24.1521 22.5673L24.0071 22.3628L23.6474 21.8775L23.2474 21.3913L23.0644 21.1644H22.976V22.3005C22.976 22.406 22.9838 22.4817 23.0001 22.5282L23.0233 22.7169L22.7411 22.7044L22.476 22.7169L22.4993 22.5407V22.3005L22.5233 21.7262V19.0611L22.5 18.3796V18.1776L22.4768 18.0131L22.7404 18.0322L22.7411 18.033ZM30.1812 22.5407V21.9024L30.199 21.132L30.1812 20.5204V19.8697L30.1517 19.6993L30.4231 19.7184L30.6991 19.6993L30.6696 19.8763V20.5328L30.6518 21.132L30.6696 21.9024V22.5473L30.6991 22.7169L30.4347 22.7044L30.1517 22.7169L30.1812 22.5407ZM30.2231 18.3987C30.2514 18.3666 30.2855 18.3411 30.3234 18.3236C30.3612 18.3062 30.402 18.2972 30.4432 18.2973C30.6448 18.2973 30.7456 18.4053 30.7456 18.6198C30.7456 18.83 30.6448 18.9356 30.4432 18.9356C30.4038 18.9369 30.3645 18.9297 30.3278 18.9144C30.291 18.8992 30.2574 18.8761 30.2292 18.8466C30.2009 18.8172 30.1784 18.7819 30.1631 18.7429C30.1478 18.7039 30.14 18.662 30.1401 18.6198C30.1401 18.5308 30.168 18.4577 30.2231 18.3987ZM36.2878 22.5847L36.3018 22.4019L36.315 22.0986V20.0716L36.2878 19.819L36.2739 19.6993L36.539 19.7184L36.798 19.6993L36.7685 19.8132L36.7507 20.0342V20.2046L36.8514 20.0591C37.0693 19.7766 37.3476 19.6353 37.6833 19.6353C37.9414 19.6353 38.1601 19.7126 38.3376 19.8663C38.5151 20.0201 38.6167 20.2378 38.6399 20.5204V22.3761L38.657 22.5972L38.6748 22.7169L38.4105 22.7044L38.1337 22.7169L38.1585 22.5839L38.1748 22.3321V20.7281C38.1686 20.6992 38.1647 20.6697 38.1632 20.6401C38.1597 20.547 38.1382 20.4557 38.1 20.372C38.0618 20.2883 38.0078 20.214 37.9414 20.1539C37.8116 20.0368 37.6467 19.9739 37.4771 19.9769C37.0871 19.9769 36.8623 20.2004 36.8034 20.6459L36.7685 21.0697V22.3878L36.791 22.5839L36.8212 22.7169L36.5266 22.7036L36.2739 22.716L36.2878 22.5831V22.5847ZM44.4086 22.357C44.2636 22.2855 44.1915 22.1592 44.1915 21.978C44.1915 21.7636 44.3419 21.5916 44.6442 21.4611L44.4504 21.3847C44.1636 21.2559 44.0202 20.9999 44.0202 20.6176C44.0202 20.2652 44.1597 20.0026 44.4388 19.8306C44.4969 19.7932 44.5551 19.7625 44.6117 19.7375C44.6721 19.7111 44.7354 19.6929 44.8001 19.6835C44.8683 19.6727 44.9396 19.6636 45.0117 19.6553C45.0846 19.6469 45.1637 19.6428 45.2505 19.6428H45.4908L45.856 19.6677H46.1854L46.5211 19.6179V19.9511L46.2265 19.9079H45.9738C46.1785 20.0874 46.28 20.311 46.28 20.5752C46.28 20.6875 46.2578 20.7986 46.2149 20.901C46.1685 21.0313 46.0913 21.1464 45.9908 21.2351C45.7722 21.4478 45.511 21.5559 45.2086 21.5559H44.9497C44.6915 21.5559 44.5621 21.6415 44.5621 21.8143C44.5621 21.983 44.6993 22.067 44.9737 22.067H45.6273C45.8932 22.067 46.1079 22.1218 46.2684 22.2299C46.3656 22.2884 46.446 22.3743 46.5009 22.4783C46.5558 22.5823 46.5832 22.7004 46.58 22.8199C46.58 23.1789 46.4196 23.4781 46.0978 23.7174C45.842 23.9053 45.5273 23.9992 45.1497 23.9992H44.9202C44.8793 23.9902 44.8382 23.9819 44.797 23.9742C44.5535 23.936 44.3636 23.8579 44.2264 23.7399C44.038 23.5803 43.9434 23.3925 43.9434 23.1781C43.9434 22.854 44.169 22.6096 44.6202 22.4459C44.5452 22.4304 44.4734 22.4003 44.4086 22.357ZM44.3388 23.1465C44.3388 23.3609 44.4303 23.5255 44.6148 23.6393C44.752 23.7233 44.9365 23.7648 45.1675 23.7648C45.4265 23.7648 45.6381 23.7149 45.8032 23.6136C46.0273 23.4789 46.1389 23.2894 46.1389 23.0451C46.1389 22.6628 45.8428 22.4717 45.2505 22.4717C45.1133 22.4717 44.9853 22.4833 44.8675 22.5091C44.5148 22.5839 44.3388 22.7975 44.3388 23.1465ZM44.5621 20.5952C44.5621 21.0838 44.7528 21.3282 45.1357 21.3282C45.2217 21.3312 45.307 21.3128 45.3852 21.2744C45.4634 21.236 45.5321 21.1788 45.5862 21.1071C45.6916 20.9808 45.7443 20.8079 45.7443 20.5894C45.7493 20.3905 45.6846 20.1969 45.5629 20.0467C45.473 19.9287 45.3365 19.8697 45.1528 19.8697C45.0674 19.8656 44.9822 19.8828 44.904 19.92C44.8259 19.9572 44.7568 20.0134 44.7024 20.0841C44.6094 20.2278 44.5621 20.3974 44.5621 20.5952ZM53.0495 19.8506L53.0317 19.6677L53.1084 19.6926C53.1549 19.7093 53.2278 19.7176 53.3255 19.7176H53.4201L53.4379 19.5165C53.4573 19.3561 53.4743 19.2439 53.4875 19.1782C53.5032 19.1063 53.5239 19.0357 53.5495 18.9671C53.6078 18.776 53.6988 18.5982 53.8178 18.4427C53.9338 18.2805 54.0811 18.147 54.2496 18.0513C54.3007 18.0264 54.3442 18.0081 54.3798 17.9973C54.4201 17.9861 54.4615 17.9808 54.5031 17.9815H54.5915L54.6558 18.0006L54.638 18.2666L54.6558 18.55L54.5031 18.4976C54.4421 18.4776 54.3785 18.4677 54.3147 18.4685C53.9891 18.4685 53.8263 18.643 53.8263 18.9954L53.848 19.3536L53.8906 19.7184H54.103L54.3736 19.6827L54.5031 19.6677L54.4798 19.8572L54.4915 20.0342L54.3209 20.0093L54.062 19.9835H53.879L53.8736 20.1763V21.4063L53.8906 22.2847V22.5415L53.9201 22.7169L53.6612 22.7044L53.3728 22.7169L53.396 22.5407V22.2747L53.4201 21.398V19.9835H53.3263C53.2686 19.9838 53.2113 19.9922 53.1557 20.0084L53.0317 20.0334L53.0495 19.8506ZM60.2011 19.7625C60.3895 19.6785 60.588 19.6361 60.7958 19.6361C61.2152 19.6361 61.5501 19.7807 61.7989 20.0683C62.0486 20.3575 62.1726 20.7306 62.1726 21.1902C62.1726 21.6523 62.0431 22.0346 61.785 22.3354C61.5253 22.6362 61.178 22.7867 60.7431 22.7867C60.4601 22.7867 60.2089 22.7152 59.9895 22.5723C59.7558 22.4357 59.5729 22.2171 59.4716 21.9531C59.3852 21.7381 59.3429 21.5057 59.3476 21.2717C59.3476 20.5096 59.6329 20.0068 60.2011 19.7625ZM59.8779 21.2584C59.8719 21.4642 59.8997 21.6695 59.9601 21.865C60.0779 22.3238 60.3345 22.5531 60.7306 22.5531C61.1625 22.5531 61.4447 22.2706 61.5788 21.7071C61.6216 21.5299 61.6432 21.3475 61.6431 21.1644C61.6431 20.8362 61.5826 20.5478 61.4609 20.2993C61.3198 20.0126 61.0919 19.8697 60.7787 19.8697C60.374 19.8697 60.105 20.114 59.9725 20.6027C59.9089 20.8046 59.8779 21.0223 59.8779 21.2584ZM67.5001 22.5531V22.0105L67.5063 21.2401V20.4315L67.5001 20.0974V19.8381L67.459 19.6993L67.7536 19.7184L68.0358 19.6993L68.0149 19.8506L67.9885 20.0783V20.242L68.1475 20.0093C68.3358 19.76 68.5343 19.6353 68.7421 19.6353L68.8832 19.6553L68.9599 19.6735L68.8832 19.9328L68.8599 20.2104L68.7242 20.1605C68.6697 20.1388 68.6119 20.1281 68.5537 20.129C68.2126 20.129 68.0188 20.3641 67.9738 20.8354C67.9659 20.934 67.961 21.033 67.9591 21.132V22.313L67.9885 22.5407L68.0064 22.7169L67.7591 22.7044L67.459 22.7169L67.5001 22.5531ZM73.9517 19.7184L74.2518 19.6993L74.2928 19.8888L74.3463 20.0965L74.4401 20.4439L74.62 20.9858L74.7619 21.4429L74.9634 21.9972L75.1518 21.4669L75.3115 20.9874L75.4852 20.4074L75.5674 20.1231L75.6348 19.8821L75.6759 19.6993L75.8767 19.7184L76.0767 19.6993L76.1294 19.8888L76.2 20.1348L76.2938 20.4506L76.4643 20.9874L76.6294 21.4919L76.8062 22.0105L76.9946 21.5118L77.1768 20.9808L77.3466 20.4439L77.4535 20.1098L77.5125 19.8888L77.5473 19.6993L77.783 19.7184L78.0063 19.6993L77.9179 19.8888L77.8001 20.1472L77.6652 20.4697L77.4504 21.039L77.083 22.0163L76.9473 22.3886L76.8954 22.5714L76.8543 22.7169H76.5194L76.4899 22.5723L76.4372 22.3695L76.338 22.0154L76.1612 21.4786L75.9286 20.8104L75.7751 20.3808L75.6278 20.8279L75.4108 21.4794L75.2526 21.9847L75.1348 22.3695L75.0821 22.5781L75.0464 22.7169H74.7115L74.6696 22.5723L74.6107 22.357L74.4812 21.9598L74.158 21.0439L73.9579 20.4755L73.8106 20.1032L73.7223 19.8821L73.6463 19.6993L73.9517 19.7184ZM83.1757 20.0026L83.2516 19.9328C83.407 19.8165 83.5806 19.731 83.7641 19.6802C83.823 19.6677 83.8804 19.6569 83.9377 19.6486C84.1297 19.6207 84.3251 19.6357 84.5114 19.6926C84.723 19.7641 84.8858 19.8971 84.9998 20.0916C85.0781 20.2129 85.1176 20.4273 85.1176 20.7348V22.3637C85.1293 22.49 85.1936 22.5531 85.3115 22.5531L85.406 22.5465L85.4409 22.6919L85.3882 22.711L85.2293 22.7609L85.0471 22.7867C84.868 22.7867 84.7556 22.6986 84.7099 22.5216L84.6758 22.3952L84.5866 22.465C84.5277 22.5149 84.4633 22.5598 84.3912 22.598C84.3168 22.6479 84.2354 22.6861 84.1478 22.711C83.9323 22.8006 83.6953 22.8117 83.4733 22.7426C83.1097 22.6371 82.9283 22.3894 82.9283 21.9972C82.9283 21.8542 82.9539 21.7262 83.0043 21.6124C83.0635 21.4664 83.166 21.3455 83.2958 21.2683C83.4199 21.1985 83.5718 21.1495 83.7524 21.1196L84.3168 21.0065L84.5292 20.9492C84.5643 20.9388 84.5965 20.9194 84.623 20.8927C84.6504 20.8587 84.6686 20.8173 84.6758 20.773V20.6342C84.6525 20.3766 84.5936 20.1921 84.4998 20.0774C84.3819 19.9395 84.2129 19.8697 83.9935 19.8697C83.8989 19.8697 83.8121 19.8813 83.7315 19.9046C83.6541 19.9264 83.5797 19.9594 83.5106 20.0026C83.4005 20.0658 83.3105 20.1813 83.24 20.35H83.1757V20.0026ZM84.6758 21.1769L84.3129 21.2401C84.2003 21.2587 84.0892 21.2862 83.9804 21.3223C83.6323 21.4188 83.4578 21.6149 83.4578 21.9091C83.4578 22.2623 83.64 22.4393 84.0044 22.4393C84.2385 22.4393 84.4385 22.3529 84.6044 22.1808L84.6758 22.0986V21.1769ZM90.663 22.5531V22.0105L90.6684 21.2401V20.4315L90.663 20.0974V19.8381L90.6219 19.6993L90.9157 19.7184L91.1979 19.6993L91.1778 19.8506L91.1514 20.0783V20.242L91.3103 20.0093C91.4979 19.76 91.6964 19.6353 91.9042 19.6353L92.0453 19.6553L92.122 19.6735L92.0453 19.9328L92.022 20.2104L91.8871 20.1605C91.8323 20.1388 91.7742 20.1281 91.7158 20.129C91.3747 20.129 91.1816 20.3641 91.1367 20.8354C91.1272 20.9339 91.1223 21.0329 91.1219 21.132V22.313L91.1514 22.5407L91.1692 22.7169L90.9212 22.7044L90.6219 22.7169L90.663 22.5531ZM99.083 22.5847L99.1093 22.2498V22.042L99.0326 22.1933C98.8209 22.5889 98.5031 22.7867 98.079 22.7867C97.6906 22.7867 97.3867 22.6229 97.1673 22.2938C96.9789 22.0038 96.8844 21.6415 96.8844 21.2085C96.8844 20.7664 96.9906 20.4024 97.2022 20.1165C97.3172 19.9629 97.4635 19.8398 97.6299 19.7565C97.7963 19.6732 97.9784 19.632 98.162 19.6361C98.3302 19.6361 98.5 19.6794 98.6705 19.7658C98.8411 19.8522 98.9636 19.9752 99.0388 20.1348L99.0682 20.2046L99.0558 19.5854L99.0442 18.7211V18.1718L99.0264 18.0139L99.2861 18.0322L99.5683 18.0139L99.5388 18.4112V20.8104L99.521 21.8841L99.5388 22.2747V22.5723L99.5683 22.7177L99.3155 22.7044L99.062 22.7177L99.083 22.5847ZM97.4139 21.1636V21.3406C97.4139 21.4038 97.4224 21.4927 97.4379 21.6066C97.4495 21.7454 97.4813 21.8758 97.5325 21.9972C97.6573 22.3429 97.879 22.5149 98.1969 22.5149C98.538 22.5149 98.7814 22.3304 98.9264 21.9598C99.0055 21.7578 99.0442 21.4944 99.0442 21.1703C99.0442 20.7913 98.9737 20.4863 98.8326 20.2553C98.6915 20.0234 98.4992 19.9079 98.2558 19.9079C97.6945 19.9079 97.4139 20.3259 97.4139 21.1636Z" fill="#676767"/>
</svg>
